<?xml version="1.0" encoding="utf-8"?>
<svg xmlns="http://www.w3.org/2000/svg" xmlns:xlink="http://www.w3.org/1999/xlink" width="600" height="400" viewBox="0 0 2400 1600">
<defs>
  <clipPath id="clip060">
    <rect x="0" y="0" width="2400" height="1600"/>
  </clipPath>
</defs>
<path clip-path="url(#clip060)" d="
M0 1600 L2400 1600 L2400 0 L0 0  Z
  " fill="#000000" fill-rule="evenodd" fill-opacity="0"/>
<defs>
  <clipPath id="clip061">
    <rect x="480" y="0" width="1681" height="1600"/>
  </clipPath>
</defs>
<path clip-path="url(#clip060)" d="
M262.551 1423.18 L2352.76 1423.18 L2352.76 47.2441 L262.551 47.2441  Z
  " fill="#000000" fill-rule="evenodd" fill-opacity="0"/>
<defs>
  <clipPath id="clip062">
    <rect x="262" y="47" width="2091" height="1377"/>
  </clipPath>
</defs>
<polyline clip-path="url(#clip062)" style="stroke:#333f48; stroke-linecap:round; stroke-linejoin:round; stroke-width:2; stroke-opacity:0.1; fill:none" points="
  327.105,1423.18 327.105,47.2441 
  "/>
<polyline clip-path="url(#clip062)" style="stroke:#333f48; stroke-linecap:round; stroke-linejoin:round; stroke-width:2; stroke-opacity:0.1; fill:none" points="
  817.747,1423.18 817.747,47.2441 
  "/>
<polyline clip-path="url(#clip062)" style="stroke:#333f48; stroke-linecap:round; stroke-linejoin:round; stroke-width:2; stroke-opacity:0.1; fill:none" points="
  1308.39,1423.18 1308.39,47.2441 
  "/>
<polyline clip-path="url(#clip062)" style="stroke:#333f48; stroke-linecap:round; stroke-linejoin:round; stroke-width:2; stroke-opacity:0.1; fill:none" points="
  1799.03,1423.18 1799.03,47.2441 
  "/>
<polyline clip-path="url(#clip062)" style="stroke:#333f48; stroke-linecap:round; stroke-linejoin:round; stroke-width:2; stroke-opacity:0.1; fill:none" points="
  2289.67,1423.18 2289.67,47.2441 
  "/>
<polyline clip-path="url(#clip060)" style="stroke:#333f48; stroke-linecap:round; stroke-linejoin:round; stroke-width:4; stroke-opacity:1; fill:none" points="
  262.551,1423.18 2352.76,1423.18 
  "/>
<polyline clip-path="url(#clip060)" style="stroke:#333f48; stroke-linecap:round; stroke-linejoin:round; stroke-width:4; stroke-opacity:1; fill:none" points="
  327.105,1423.18 327.105,1404.28 
  "/>
<polyline clip-path="url(#clip060)" style="stroke:#333f48; stroke-linecap:round; stroke-linejoin:round; stroke-width:4; stroke-opacity:1; fill:none" points="
  817.747,1423.18 817.747,1404.28 
  "/>
<polyline clip-path="url(#clip060)" style="stroke:#333f48; stroke-linecap:round; stroke-linejoin:round; stroke-width:4; stroke-opacity:1; fill:none" points="
  1308.39,1423.18 1308.39,1404.28 
  "/>
<polyline clip-path="url(#clip060)" style="stroke:#333f48; stroke-linecap:round; stroke-linejoin:round; stroke-width:4; stroke-opacity:1; fill:none" points="
  1799.03,1423.18 1799.03,1404.28 
  "/>
<polyline clip-path="url(#clip060)" style="stroke:#333f48; stroke-linecap:round; stroke-linejoin:round; stroke-width:4; stroke-opacity:1; fill:none" points="
  2289.67,1423.18 2289.67,1404.28 
  "/>
<path clip-path="url(#clip060)" d="M307.742 1455.09 L295.936 1473.54 L307.742 1473.54 L307.742 1455.09 M306.515 1451.02 L312.394 1451.02 L312.394 1473.54 L317.325 1473.54 L317.325 1477.43 L312.394 1477.43 L312.394 1485.58 L307.742 1485.58 L307.742 1477.43 L292.14 1477.43 L292.14 1472.92 L306.515 1451.02 Z" fill="#333f48" fill-rule="evenodd" fill-opacity="1" /><path clip-path="url(#clip060)" d="M325.056 1479.7 L329.941 1479.7 L329.941 1485.58 L325.056 1485.58 L325.056 1479.7 Z" fill="#333f48" fill-rule="evenodd" fill-opacity="1" /><path clip-path="url(#clip060)" d="M350.126 1454.1 Q346.515 1454.1 344.686 1457.66 Q342.88 1461.2 342.88 1468.33 Q342.88 1475.44 344.686 1479.01 Q346.515 1482.55 350.126 1482.55 Q353.76 1482.55 355.566 1479.01 Q357.394 1475.44 357.394 1468.33 Q357.394 1461.2 355.566 1457.66 Q353.76 1454.1 350.126 1454.1 M350.126 1450.39 Q355.936 1450.39 358.991 1455 Q362.07 1459.58 362.07 1468.33 Q362.07 1477.06 358.991 1481.67 Q355.936 1486.25 350.126 1486.25 Q344.316 1486.25 341.237 1481.67 Q338.181 1477.06 338.181 1468.33 Q338.181 1459.58 341.237 1455 Q344.316 1450.39 350.126 1450.39 Z" fill="#333f48" fill-rule="evenodd" fill-opacity="1" /><path clip-path="url(#clip060)" d="M798.882 1455.09 L787.076 1473.54 L798.882 1473.54 L798.882 1455.09 M797.655 1451.02 L803.534 1451.02 L803.534 1473.54 L808.465 1473.54 L808.465 1477.43 L803.534 1477.43 L803.534 1485.58 L798.882 1485.58 L798.882 1477.43 L783.28 1477.43 L783.28 1472.92 L797.655 1451.02 Z" fill="#333f48" fill-rule="evenodd" fill-opacity="1" /><path clip-path="url(#clip060)" d="M816.196 1479.7 L821.081 1479.7 L821.081 1485.58 L816.196 1485.58 L816.196 1479.7 Z" fill="#333f48" fill-rule="evenodd" fill-opacity="1" /><path clip-path="url(#clip060)" d="M831.312 1451.02 L849.668 1451.02 L849.668 1454.96 L835.594 1454.96 L835.594 1463.43 Q836.613 1463.08 837.631 1462.92 Q838.65 1462.73 839.668 1462.73 Q845.455 1462.73 848.835 1465.9 Q852.215 1469.08 852.215 1474.49 Q852.215 1480.07 848.742 1483.17 Q845.27 1486.25 838.951 1486.25 Q836.775 1486.25 834.506 1485.88 Q832.261 1485.51 829.854 1484.77 L829.854 1480.07 Q831.937 1481.2 834.159 1481.76 Q836.381 1482.32 838.858 1482.32 Q842.863 1482.32 845.201 1480.21 Q847.539 1478.1 847.539 1474.49 Q847.539 1470.88 845.201 1468.77 Q842.863 1466.67 838.858 1466.67 Q836.983 1466.67 835.108 1467.08 Q833.256 1467.5 831.312 1468.38 L831.312 1451.02 Z" fill="#333f48" fill-rule="evenodd" fill-opacity="1" /><path clip-path="url(#clip060)" d="M1275.55 1451.02 L1293.91 1451.02 L1293.91 1454.96 L1279.84 1454.96 L1279.84 1463.43 Q1280.85 1463.08 1281.87 1462.92 Q1282.89 1462.73 1283.91 1462.73 Q1289.7 1462.73 1293.08 1465.9 Q1296.46 1469.08 1296.46 1474.49 Q1296.46 1480.07 1292.98 1483.17 Q1289.51 1486.25 1283.19 1486.25 Q1281.02 1486.25 1278.75 1485.88 Q1276.5 1485.51 1274.1 1484.77 L1274.1 1480.07 Q1276.18 1481.2 1278.4 1481.76 Q1280.62 1482.32 1283.1 1482.32 Q1287.1 1482.32 1289.44 1480.21 Q1291.78 1478.1 1291.78 1474.49 Q1291.78 1470.88 1289.44 1468.77 Q1287.1 1466.67 1283.1 1466.67 Q1281.23 1466.67 1279.35 1467.08 Q1277.5 1467.5 1275.55 1468.38 L1275.55 1451.02 Z" fill="#333f48" fill-rule="evenodd" fill-opacity="1" /><path clip-path="url(#clip060)" d="M1305.67 1479.7 L1310.55 1479.7 L1310.55 1485.58 L1305.67 1485.58 L1305.67 1479.7 Z" fill="#333f48" fill-rule="evenodd" fill-opacity="1" /><path clip-path="url(#clip060)" d="M1330.74 1454.1 Q1327.13 1454.1 1325.3 1457.66 Q1323.49 1461.2 1323.49 1468.33 Q1323.49 1475.44 1325.3 1479.01 Q1327.13 1482.55 1330.74 1482.55 Q1334.37 1482.55 1336.18 1479.01 Q1338.01 1475.44 1338.01 1468.33 Q1338.01 1461.2 1336.18 1457.66 Q1334.37 1454.1 1330.74 1454.1 M1330.74 1450.39 Q1336.55 1450.39 1339.6 1455 Q1342.68 1459.58 1342.68 1468.33 Q1342.68 1477.06 1339.6 1481.67 Q1336.55 1486.25 1330.74 1486.25 Q1324.93 1486.25 1321.85 1481.67 Q1318.79 1477.06 1318.79 1468.33 Q1318.79 1459.58 1321.85 1455 Q1324.93 1450.39 1330.74 1450.39 Z" fill="#333f48" fill-rule="evenodd" fill-opacity="1" /><path clip-path="url(#clip060)" d="M1766.69 1451.02 L1785.05 1451.02 L1785.05 1454.96 L1770.98 1454.96 L1770.98 1463.43 Q1771.99 1463.08 1773.01 1462.92 Q1774.03 1462.73 1775.05 1462.73 Q1780.84 1462.73 1784.22 1465.9 Q1787.6 1469.08 1787.6 1474.49 Q1787.6 1480.07 1784.12 1483.17 Q1780.65 1486.25 1774.33 1486.25 Q1772.16 1486.25 1769.89 1485.88 Q1767.64 1485.51 1765.24 1484.77 L1765.24 1480.07 Q1767.32 1481.2 1769.54 1481.76 Q1771.76 1482.32 1774.24 1482.32 Q1778.24 1482.32 1780.58 1480.21 Q1782.92 1478.1 1782.92 1474.49 Q1782.92 1470.88 1780.58 1468.77 Q1778.24 1466.67 1774.24 1466.67 Q1772.37 1466.67 1770.49 1467.08 Q1768.64 1467.5 1766.69 1468.38 L1766.69 1451.02 Z" fill="#333f48" fill-rule="evenodd" fill-opacity="1" /><path clip-path="url(#clip060)" d="M1796.81 1479.7 L1801.69 1479.7 L1801.69 1485.58 L1796.81 1485.58 L1796.81 1479.7 Z" fill="#333f48" fill-rule="evenodd" fill-opacity="1" /><path clip-path="url(#clip060)" d="M1811.93 1451.02 L1830.28 1451.02 L1830.28 1454.96 L1816.21 1454.96 L1816.21 1463.43 Q1817.23 1463.08 1818.24 1462.92 Q1819.26 1462.73 1820.28 1462.73 Q1826.07 1462.73 1829.45 1465.9 Q1832.83 1469.08 1832.83 1474.49 Q1832.83 1480.07 1829.36 1483.17 Q1825.88 1486.25 1819.56 1486.25 Q1817.39 1486.25 1815.12 1485.88 Q1812.87 1485.51 1810.47 1484.77 L1810.47 1480.07 Q1812.55 1481.2 1814.77 1481.76 Q1816.99 1482.32 1819.47 1482.32 Q1823.48 1482.32 1825.81 1480.21 Q1828.15 1478.1 1828.15 1474.49 Q1828.15 1470.88 1825.81 1468.77 Q1823.48 1466.67 1819.47 1466.67 Q1817.6 1466.67 1815.72 1467.08 Q1813.87 1467.5 1811.93 1468.38 L1811.93 1451.02 Z" fill="#333f48" fill-rule="evenodd" fill-opacity="1" /><path clip-path="url(#clip060)" d="M2267.54 1466.44 Q2264.4 1466.44 2262.54 1468.59 Q2260.72 1470.74 2260.72 1474.49 Q2260.72 1478.22 2262.54 1480.39 Q2264.4 1482.55 2267.54 1482.55 Q2270.69 1482.55 2272.52 1480.39 Q2274.37 1478.22 2274.37 1474.49 Q2274.37 1470.74 2272.52 1468.59 Q2270.69 1466.44 2267.54 1466.44 M2276.83 1451.78 L2276.83 1456.04 Q2275.07 1455.21 2273.26 1454.77 Q2271.48 1454.33 2269.72 1454.33 Q2265.09 1454.33 2262.64 1457.45 Q2260.21 1460.58 2259.86 1466.9 Q2261.23 1464.89 2263.29 1463.82 Q2265.35 1462.73 2267.82 1462.73 Q2273.03 1462.73 2276.04 1465.9 Q2279.07 1469.05 2279.07 1474.49 Q2279.07 1479.82 2275.92 1483.03 Q2272.78 1486.25 2267.54 1486.25 Q2261.55 1486.25 2258.38 1481.67 Q2255.21 1477.06 2255.21 1468.33 Q2255.21 1460.14 2259.1 1455.28 Q2262.98 1450.39 2269.54 1450.39 Q2271.29 1450.39 2273.08 1450.74 Q2274.88 1451.09 2276.83 1451.78 Z" fill="#333f48" fill-rule="evenodd" fill-opacity="1" /><path clip-path="url(#clip060)" d="M2287.13 1479.7 L2292.01 1479.7 L2292.01 1485.58 L2287.13 1485.58 L2287.13 1479.7 Z" fill="#333f48" fill-rule="evenodd" fill-opacity="1" /><path clip-path="url(#clip060)" d="M2312.2 1454.1 Q2308.59 1454.1 2306.76 1457.66 Q2304.95 1461.2 2304.95 1468.33 Q2304.95 1475.44 2306.76 1479.01 Q2308.59 1482.55 2312.2 1482.55 Q2315.83 1482.55 2317.64 1479.01 Q2319.47 1475.44 2319.47 1468.33 Q2319.47 1461.2 2317.64 1457.66 Q2315.83 1454.1 2312.2 1454.1 M2312.2 1450.39 Q2318.01 1450.39 2321.06 1455 Q2324.14 1459.58 2324.14 1468.33 Q2324.14 1477.06 2321.06 1481.67 Q2318.01 1486.25 2312.2 1486.25 Q2306.39 1486.25 2303.31 1481.67 Q2300.25 1477.06 2300.25 1468.33 Q2300.25 1459.58 2303.31 1455 Q2306.39 1450.39 2312.2 1450.39 Z" fill="#333f48" fill-rule="evenodd" fill-opacity="1" /><path clip-path="url(#clip060)" d="M1168.63 1520.52 L1198.67 1520.52 L1198.67 1525.93 L1175.06 1525.93 L1175.06 1540 L1197.69 1540 L1197.69 1545.41 L1175.06 1545.41 L1175.06 1562.63 L1199.25 1562.63 L1199.25 1568.04 L1168.63 1568.04 L1168.63 1520.52 Z" fill="#333f48" fill-rule="evenodd" fill-opacity="1" /><path clip-path="url(#clip060)" d="M1232.28 1533.45 L1232.28 1538.98 Q1229.8 1537.71 1227.13 1537.07 Q1224.45 1536.44 1221.59 1536.44 Q1217.23 1536.44 1215.03 1537.77 Q1212.87 1539.11 1212.87 1541.79 Q1212.87 1543.82 1214.43 1545 Q1215.99 1546.15 1220.7 1547.2 L1222.7 1547.64 Q1228.94 1548.98 1231.55 1551.43 Q1234.19 1553.85 1234.19 1558.21 Q1234.19 1563.17 1230.25 1566.07 Q1226.33 1568.97 1219.46 1568.97 Q1216.59 1568.97 1213.47 1568.39 Q1210.39 1567.85 1206.95 1566.74 L1206.95 1560.69 Q1210.19 1562.38 1213.35 1563.24 Q1216.5 1564.07 1219.58 1564.07 Q1223.72 1564.07 1225.95 1562.66 Q1228.18 1561.23 1228.18 1558.65 Q1228.18 1556.27 1226.55 1554.99 Q1224.96 1553.72 1219.52 1552.54 L1217.48 1552.07 Q1212.04 1550.92 1209.62 1548.56 Q1207.2 1546.18 1207.2 1542.04 Q1207.2 1537.01 1210.77 1534.27 Q1214.33 1531.54 1220.89 1531.54 Q1224.14 1531.54 1227 1532.01 Q1229.86 1532.49 1232.28 1533.45 Z" fill="#333f48" fill-rule="evenodd" fill-opacity="1" /><path clip-path="url(#clip060)" d="M1249.31 1522.27 L1249.31 1532.4 L1261.37 1532.4 L1261.37 1536.95 L1249.31 1536.95 L1249.31 1556.3 Q1249.31 1560.66 1250.49 1561.9 Q1251.7 1563.14 1255.36 1563.14 L1261.37 1563.14 L1261.37 1568.04 L1255.36 1568.04 Q1248.58 1568.04 1246 1565.53 Q1243.42 1562.98 1243.42 1556.3 L1243.42 1536.95 L1239.13 1536.95 L1239.13 1532.4 L1243.42 1532.4 L1243.42 1522.27 L1249.31 1522.27 Z" fill="#333f48" fill-rule="evenodd" fill-opacity="1" /><path clip-path="url(#clip060)" d="M1269.08 1532.4 L1274.93 1532.4 L1274.93 1568.04 L1269.08 1568.04 L1269.08 1532.4 M1269.08 1518.52 L1274.93 1518.52 L1274.93 1525.93 L1269.08 1525.93 L1269.08 1518.52 Z" fill="#333f48" fill-rule="evenodd" fill-opacity="1" /><path clip-path="url(#clip060)" d="M1314.94 1539.24 Q1317.14 1535.29 1320.19 1533.41 Q1323.25 1531.54 1327.39 1531.54 Q1332.96 1531.54 1335.98 1535.45 Q1339 1539.33 1339 1546.53 L1339 1568.04 L1333.12 1568.04 L1333.12 1546.72 Q1333.12 1541.59 1331.3 1539.11 Q1329.49 1536.63 1325.76 1536.63 Q1321.21 1536.63 1318.57 1539.65 Q1315.93 1542.68 1315.93 1547.9 L1315.93 1568.04 L1310.04 1568.04 L1310.04 1546.72 Q1310.04 1541.56 1308.23 1539.11 Q1306.41 1536.63 1302.62 1536.63 Q1298.14 1536.63 1295.5 1539.68 Q1292.85 1542.71 1292.85 1547.9 L1292.85 1568.04 L1286.97 1568.04 L1286.97 1532.4 L1292.85 1532.4 L1292.85 1537.93 Q1294.86 1534.66 1297.66 1533.1 Q1300.46 1531.54 1304.31 1531.54 Q1308.19 1531.54 1310.9 1533.51 Q1313.64 1535.48 1314.94 1539.24 Z" fill="#333f48" fill-rule="evenodd" fill-opacity="1" /><path clip-path="url(#clip060)" d="M1366.89 1550.12 Q1359.79 1550.12 1357.05 1551.75 Q1354.31 1553.37 1354.31 1557.29 Q1354.31 1560.4 1356.35 1562.25 Q1358.42 1564.07 1361.95 1564.07 Q1366.82 1564.07 1369.75 1560.63 Q1372.71 1557.16 1372.71 1551.43 L1372.71 1550.12 L1366.89 1550.12 M1378.57 1547.71 L1378.57 1568.04 L1372.71 1568.04 L1372.71 1562.63 Q1370.71 1565.88 1367.71 1567.44 Q1364.72 1568.97 1360.39 1568.97 Q1354.92 1568.97 1351.67 1565.91 Q1348.46 1562.82 1348.46 1557.67 Q1348.46 1551.65 1352.47 1548.6 Q1356.51 1545.54 1364.5 1545.54 L1372.71 1545.54 L1372.71 1544.97 Q1372.71 1540.93 1370.04 1538.73 Q1367.4 1536.5 1362.59 1536.5 Q1359.53 1536.5 1356.64 1537.23 Q1353.74 1537.97 1351.07 1539.43 L1351.07 1534.02 Q1354.28 1532.78 1357.31 1532.17 Q1360.33 1531.54 1363.19 1531.54 Q1370.93 1531.54 1374.75 1535.55 Q1378.57 1539.56 1378.57 1547.71 Z" fill="#333f48" fill-rule="evenodd" fill-opacity="1" /><path clip-path="url(#clip060)" d="M1396.42 1522.27 L1396.42 1532.4 L1408.49 1532.4 L1408.49 1536.95 L1396.42 1536.95 L1396.42 1556.3 Q1396.42 1560.66 1397.6 1561.9 Q1398.81 1563.14 1402.47 1563.14 L1408.49 1563.14 L1408.49 1568.04 L1402.47 1568.04 Q1395.69 1568.04 1393.11 1565.53 Q1390.54 1562.98 1390.54 1556.3 L1390.54 1536.95 L1386.24 1536.95 L1386.24 1532.4 L1390.54 1532.4 L1390.54 1522.27 L1396.42 1522.27 Z" fill="#333f48" fill-rule="evenodd" fill-opacity="1" /><path clip-path="url(#clip060)" d="M1446.68 1548.76 L1446.68 1551.62 L1419.75 1551.62 Q1420.14 1557.67 1423.38 1560.85 Q1426.66 1564 1432.49 1564 Q1435.86 1564 1439.01 1563.17 Q1442.19 1562.35 1445.31 1560.69 L1445.31 1566.23 Q1442.16 1567.57 1438.85 1568.27 Q1435.54 1568.97 1432.13 1568.97 Q1423.6 1568.97 1418.61 1564 Q1413.64 1559.04 1413.64 1550.57 Q1413.64 1541.82 1418.35 1536.69 Q1423.1 1531.54 1431.12 1531.54 Q1438.31 1531.54 1442.48 1536.18 Q1446.68 1540.8 1446.68 1548.76 M1440.82 1547.04 Q1440.76 1542.23 1438.12 1539.37 Q1435.51 1536.5 1431.18 1536.5 Q1426.28 1536.5 1423.32 1539.27 Q1420.39 1542.04 1419.94 1547.07 L1440.82 1547.04 Z" fill="#333f48" fill-rule="evenodd" fill-opacity="1" /><polyline clip-path="url(#clip062)" style="stroke:#333f48; stroke-linecap:round; stroke-linejoin:round; stroke-width:2; stroke-opacity:0.1; fill:none" points="
  262.551,1416.95 2352.76,1416.95 
  "/>
<polyline clip-path="url(#clip062)" style="stroke:#333f48; stroke-linecap:round; stroke-linejoin:round; stroke-width:2; stroke-opacity:0.1; fill:none" points="
  262.551,1105.66 2352.76,1105.66 
  "/>
<polyline clip-path="url(#clip062)" style="stroke:#333f48; stroke-linecap:round; stroke-linejoin:round; stroke-width:2; stroke-opacity:0.1; fill:none" points="
  262.551,794.359 2352.76,794.359 
  "/>
<polyline clip-path="url(#clip062)" style="stroke:#333f48; stroke-linecap:round; stroke-linejoin:round; stroke-width:2; stroke-opacity:0.1; fill:none" points="
  262.551,483.061 2352.76,483.061 
  "/>
<polyline clip-path="url(#clip062)" style="stroke:#333f48; stroke-linecap:round; stroke-linejoin:round; stroke-width:2; stroke-opacity:0.1; fill:none" points="
  262.551,171.763 2352.76,171.763 
  "/>
<polyline clip-path="url(#clip060)" style="stroke:#333f48; stroke-linecap:round; stroke-linejoin:round; stroke-width:4; stroke-opacity:1; fill:none" points="
  262.551,1423.18 262.551,47.2441 
  "/>
<polyline clip-path="url(#clip060)" style="stroke:#333f48; stroke-linecap:round; stroke-linejoin:round; stroke-width:4; stroke-opacity:1; fill:none" points="
  262.551,1416.95 281.449,1416.95 
  "/>
<polyline clip-path="url(#clip060)" style="stroke:#333f48; stroke-linecap:round; stroke-linejoin:round; stroke-width:4; stroke-opacity:1; fill:none" points="
  262.551,1105.66 281.449,1105.66 
  "/>
<polyline clip-path="url(#clip060)" style="stroke:#333f48; stroke-linecap:round; stroke-linejoin:round; stroke-width:4; stroke-opacity:1; fill:none" points="
  262.551,794.359 281.449,794.359 
  "/>
<polyline clip-path="url(#clip060)" style="stroke:#333f48; stroke-linecap:round; stroke-linejoin:round; stroke-width:4; stroke-opacity:1; fill:none" points="
  262.551,483.061 281.449,483.061 
  "/>
<polyline clip-path="url(#clip060)" style="stroke:#333f48; stroke-linecap:round; stroke-linejoin:round; stroke-width:4; stroke-opacity:1; fill:none" points="
  262.551,171.763 281.449,171.763 
  "/>
<path clip-path="url(#clip060)" d="M214.607 1402.75 Q210.996 1402.75 209.167 1406.32 Q207.362 1409.86 207.362 1416.99 Q207.362 1424.1 209.167 1427.66 Q210.996 1431.2 214.607 1431.2 Q218.241 1431.2 220.047 1427.66 Q221.875 1424.1 221.875 1416.99 Q221.875 1409.86 220.047 1406.32 Q218.241 1402.75 214.607 1402.75 M214.607 1399.05 Q220.417 1399.05 223.473 1403.66 Q226.551 1408.24 226.551 1416.99 Q226.551 1425.72 223.473 1430.32 Q220.417 1434.91 214.607 1434.91 Q208.797 1434.91 205.718 1430.32 Q202.662 1425.72 202.662 1416.99 Q202.662 1408.24 205.718 1403.66 Q208.797 1399.05 214.607 1399.05 Z" fill="#333f48" fill-rule="evenodd" fill-opacity="1" /><path clip-path="url(#clip060)" d="M148.311 1119 L164.63 1119 L164.63 1122.94 L142.686 1122.94 L142.686 1119 Q145.348 1116.25 149.931 1111.62 Q154.538 1106.96 155.718 1105.62 Q157.964 1103.1 158.843 1101.36 Q159.746 1099.6 159.746 1097.91 Q159.746 1095.16 157.802 1093.42 Q155.88 1091.69 152.778 1091.69 Q150.579 1091.69 148.126 1092.45 Q145.695 1093.21 142.917 1094.77 L142.917 1090.04 Q145.741 1088.91 148.195 1088.33 Q150.649 1087.75 152.686 1087.75 Q158.056 1087.75 161.251 1090.44 Q164.445 1093.12 164.445 1097.61 Q164.445 1099.74 163.635 1101.66 Q162.848 1103.56 160.741 1106.15 Q160.163 1106.83 157.061 1110.04 Q153.959 1113.24 148.311 1119 Z" fill="#333f48" fill-rule="evenodd" fill-opacity="1" /><path clip-path="url(#clip060)" d="M174.491 1088.38 L192.848 1088.38 L192.848 1092.31 L178.774 1092.31 L178.774 1100.78 Q179.792 1100.44 180.811 1100.27 Q181.829 1100.09 182.848 1100.09 Q188.635 1100.09 192.014 1103.26 Q195.394 1106.43 195.394 1111.85 Q195.394 1117.43 191.922 1120.53 Q188.45 1123.61 182.13 1123.61 Q179.954 1123.61 177.686 1123.24 Q175.44 1122.87 173.033 1122.13 L173.033 1117.43 Q175.116 1118.56 177.339 1119.12 Q179.561 1119.67 182.038 1119.67 Q186.042 1119.67 188.38 1117.57 Q190.718 1115.46 190.718 1111.85 Q190.718 1108.24 188.38 1106.13 Q186.042 1104.02 182.038 1104.02 Q180.163 1104.02 178.288 1104.44 Q176.436 1104.86 174.491 1105.74 L174.491 1088.38 Z" fill="#333f48" fill-rule="evenodd" fill-opacity="1" /><path clip-path="url(#clip060)" d="M214.607 1091.45 Q210.996 1091.45 209.167 1095.02 Q207.362 1098.56 207.362 1105.69 Q207.362 1112.8 209.167 1116.36 Q210.996 1119.9 214.607 1119.9 Q218.241 1119.9 220.047 1116.36 Q221.875 1112.8 221.875 1105.69 Q221.875 1098.56 220.047 1095.02 Q218.241 1091.45 214.607 1091.45 M214.607 1087.75 Q220.417 1087.75 223.473 1092.36 Q226.551 1096.94 226.551 1105.69 Q226.551 1114.42 223.473 1119.02 Q220.417 1123.61 214.607 1123.61 Q208.797 1123.61 205.718 1119.02 Q202.662 1114.42 202.662 1105.69 Q202.662 1096.94 205.718 1092.36 Q208.797 1087.75 214.607 1087.75 Z" fill="#333f48" fill-rule="evenodd" fill-opacity="1" /><path clip-path="url(#clip060)" d="M144.329 777.079 L162.686 777.079 L162.686 781.014 L148.612 781.014 L148.612 789.486 Q149.63 789.139 150.649 788.977 Q151.667 788.791 152.686 788.791 Q158.473 788.791 161.852 791.963 Q165.232 795.134 165.232 800.551 Q165.232 806.129 161.76 809.231 Q158.288 812.31 151.968 812.31 Q149.792 812.31 147.524 811.939 Q145.279 811.569 142.871 810.828 L142.871 806.129 Q144.954 807.264 147.177 807.819 Q149.399 808.375 151.876 808.375 Q155.88 808.375 158.218 806.268 Q160.556 804.162 160.556 800.551 Q160.556 796.94 158.218 794.833 Q155.88 792.727 151.876 792.727 Q150.001 792.727 148.126 793.143 Q146.274 793.56 144.329 794.44 L144.329 777.079 Z" fill="#333f48" fill-rule="evenodd" fill-opacity="1" /><path clip-path="url(#clip060)" d="M184.445 780.157 Q180.834 780.157 179.005 783.722 Q177.2 787.264 177.2 794.393 Q177.2 801.5 179.005 805.064 Q180.834 808.606 184.445 808.606 Q188.079 808.606 189.885 805.064 Q191.713 801.5 191.713 794.393 Q191.713 787.264 189.885 783.722 Q188.079 780.157 184.445 780.157 M184.445 776.454 Q190.255 776.454 193.311 781.06 Q196.389 785.643 196.389 794.393 Q196.389 803.12 193.311 807.727 Q190.255 812.31 184.445 812.31 Q178.635 812.31 175.556 807.727 Q172.501 803.12 172.501 794.393 Q172.501 785.643 175.556 781.06 Q178.635 776.454 184.445 776.454 Z" fill="#333f48" fill-rule="evenodd" fill-opacity="1" /><path clip-path="url(#clip060)" d="M214.607 780.157 Q210.996 780.157 209.167 783.722 Q207.362 787.264 207.362 794.393 Q207.362 801.5 209.167 805.064 Q210.996 808.606 214.607 808.606 Q218.241 808.606 220.047 805.064 Q221.875 801.5 221.875 794.393 Q221.875 787.264 220.047 783.722 Q218.241 780.157 214.607 780.157 M214.607 776.454 Q220.417 776.454 223.473 781.06 Q226.551 785.643 226.551 794.393 Q226.551 803.12 223.473 807.727 Q220.417 812.31 214.607 812.31 Q208.797 812.31 205.718 807.727 Q202.662 803.12 202.662 794.393 Q202.662 785.643 205.718 781.06 Q208.797 776.454 214.607 776.454 Z" fill="#333f48" fill-rule="evenodd" fill-opacity="1" /><path clip-path="url(#clip060)" d="M143.103 465.781 L165.325 465.781 L165.325 467.772 L152.778 500.341 L147.894 500.341 L159.7 469.716 L143.103 469.716 L143.103 465.781 Z" fill="#333f48" fill-rule="evenodd" fill-opacity="1" /><path clip-path="url(#clip060)" d="M174.491 465.781 L192.848 465.781 L192.848 469.716 L178.774 469.716 L178.774 478.188 Q179.792 477.841 180.811 477.679 Q181.829 477.494 182.848 477.494 Q188.635 477.494 192.014 480.665 Q195.394 483.836 195.394 489.253 Q195.394 494.832 191.922 497.933 Q188.45 501.012 182.13 501.012 Q179.954 501.012 177.686 500.642 Q175.44 500.271 173.033 499.531 L173.033 494.832 Q175.116 495.966 177.339 496.521 Q179.561 497.077 182.038 497.077 Q186.042 497.077 188.38 494.971 Q190.718 492.864 190.718 489.253 Q190.718 485.642 188.38 483.535 Q186.042 481.429 182.038 481.429 Q180.163 481.429 178.288 481.846 Q176.436 482.262 174.491 483.142 L174.491 465.781 Z" fill="#333f48" fill-rule="evenodd" fill-opacity="1" /><path clip-path="url(#clip060)" d="M214.607 468.86 Q210.996 468.86 209.167 472.424 Q207.362 475.966 207.362 483.096 Q207.362 490.202 209.167 493.767 Q210.996 497.308 214.607 497.308 Q218.241 497.308 220.047 493.767 Q221.875 490.202 221.875 483.096 Q221.875 475.966 220.047 472.424 Q218.241 468.86 214.607 468.86 M214.607 465.156 Q220.417 465.156 223.473 469.762 Q226.551 474.346 226.551 483.096 Q226.551 491.822 223.473 496.429 Q220.417 501.012 214.607 501.012 Q208.797 501.012 205.718 496.429 Q202.662 491.822 202.662 483.096 Q202.662 474.346 205.718 469.762 Q208.797 465.156 214.607 465.156 Z" fill="#333f48" fill-rule="evenodd" fill-opacity="1" /><path clip-path="url(#clip060)" d="M114.931 185.108 L122.57 185.108 L122.57 158.742 L114.26 160.409 L114.26 156.15 L122.524 154.483 L127.2 154.483 L127.2 185.108 L134.839 185.108 L134.839 189.043 L114.931 189.043 L114.931 185.108 Z" fill="#333f48" fill-rule="evenodd" fill-opacity="1" /><path clip-path="url(#clip060)" d="M154.283 157.562 Q150.672 157.562 148.843 161.127 Q147.038 164.668 147.038 171.798 Q147.038 178.904 148.843 182.469 Q150.672 186.011 154.283 186.011 Q157.917 186.011 159.723 182.469 Q161.552 178.904 161.552 171.798 Q161.552 164.668 159.723 161.127 Q157.917 157.562 154.283 157.562 M154.283 153.858 Q160.093 153.858 163.149 158.465 Q166.227 163.048 166.227 171.798 Q166.227 180.525 163.149 185.131 Q160.093 189.714 154.283 189.714 Q148.473 189.714 145.394 185.131 Q142.339 180.525 142.339 171.798 Q142.339 163.048 145.394 158.465 Q148.473 153.858 154.283 153.858 Z" fill="#333f48" fill-rule="evenodd" fill-opacity="1" /><path clip-path="url(#clip060)" d="M184.445 157.562 Q180.834 157.562 179.005 161.127 Q177.2 164.668 177.2 171.798 Q177.2 178.904 179.005 182.469 Q180.834 186.011 184.445 186.011 Q188.079 186.011 189.885 182.469 Q191.713 178.904 191.713 171.798 Q191.713 164.668 189.885 161.127 Q188.079 157.562 184.445 157.562 M184.445 153.858 Q190.255 153.858 193.311 158.465 Q196.389 163.048 196.389 171.798 Q196.389 180.525 193.311 185.131 Q190.255 189.714 184.445 189.714 Q178.635 189.714 175.556 185.131 Q172.501 180.525 172.501 171.798 Q172.501 163.048 175.556 158.465 Q178.635 153.858 184.445 153.858 Z" fill="#333f48" fill-rule="evenodd" fill-opacity="1" /><path clip-path="url(#clip060)" d="M214.607 157.562 Q210.996 157.562 209.167 161.127 Q207.362 164.668 207.362 171.798 Q207.362 178.904 209.167 182.469 Q210.996 186.011 214.607 186.011 Q218.241 186.011 220.047 182.469 Q221.875 178.904 221.875 171.798 Q221.875 164.668 220.047 161.127 Q218.241 157.562 214.607 157.562 M214.607 153.858 Q220.417 153.858 223.473 158.465 Q226.551 163.048 226.551 171.798 Q226.551 180.525 223.473 185.131 Q220.417 189.714 214.607 189.714 Q208.797 189.714 205.718 185.131 Q202.662 180.525 202.662 171.798 Q202.662 163.048 205.718 158.465 Q208.797 153.858 214.607 153.858 Z" fill="#333f48" fill-rule="evenodd" fill-opacity="1" /><path clip-path="url(#clip060)" d="M16.4842 899.415 L16.4842 872.106 L21.895 872.106 L21.895 892.986 L35.8996 892.986 L35.8996 874.144 L41.3104 874.144 L41.3104 892.986 L64.0042 892.986 L64.0042 899.415 L16.4842 899.415 Z" fill="#333f48" fill-rule="evenodd" fill-opacity="1" /><path clip-path="url(#clip060)" d="M33.8307 846.262 Q33.2578 847.248 33.0032 848.426 Q32.7167 849.572 32.7167 850.972 Q32.7167 855.938 35.9632 858.611 Q39.1779 861.253 45.2253 861.253 L64.0042 861.253 L64.0042 867.141 L28.3562 867.141 L28.3562 861.253 L33.8944 861.253 Q30.6479 859.407 29.0883 856.447 Q27.4968 853.487 27.4968 849.254 Q27.4968 848.649 27.5923 847.917 Q27.656 847.185 27.8151 846.294 L33.8307 846.262 Z" fill="#333f48" fill-rule="evenodd" fill-opacity="1" /><path clip-path="url(#clip060)" d="M44.7161 811.059 L47.5806 811.059 L47.5806 837.986 Q53.6281 837.604 56.8109 834.358 Q59.9619 831.08 59.9619 825.255 Q59.9619 821.881 59.1344 818.73 Q58.3069 815.547 56.6518 812.428 L62.1899 812.428 Q63.5267 815.579 64.227 818.889 Q64.9272 822.199 64.9272 825.605 Q64.9272 834.135 59.9619 839.132 Q54.9967 844.097 46.5303 844.097 Q37.7774 844.097 32.6531 839.387 Q27.4968 834.644 27.4968 826.624 Q27.4968 819.43 32.1438 815.261 Q36.7589 811.059 44.7161 811.059 M42.9973 816.916 Q38.1912 816.979 35.3266 819.621 Q32.4621 822.231 32.4621 826.56 Q32.4621 831.461 35.2312 834.422 Q38.0002 837.35 43.0292 837.795 L42.9973 816.916 Z" fill="#333f48" fill-rule="evenodd" fill-opacity="1" /><path clip-path="url(#clip060)" d="M46.212 797.946 Q52.6732 797.946 56.3653 795.304 Q60.0256 792.631 60.0256 787.984 Q60.0256 783.337 56.3653 780.663 Q52.6732 777.99 46.212 777.99 Q39.7508 777.99 36.0905 780.663 Q32.3984 783.337 32.3984 787.984 Q32.3984 792.631 36.0905 795.304 Q39.7508 797.946 46.212 797.946 M58.657 777.99 Q61.8398 779.836 63.3994 782.668 Q64.9272 785.469 64.9272 789.416 Q64.9272 795.877 59.771 799.951 Q54.6147 803.993 46.212 803.993 Q37.8093 803.993 32.6531 799.951 Q27.4968 795.877 27.4968 789.416 Q27.4968 785.469 29.0564 782.668 Q30.5842 779.836 33.7671 777.99 L28.3562 777.99 L28.3562 772.133 L77.5631 772.133 L77.5631 777.99 L58.657 777.99 Z" fill="#333f48" fill-rule="evenodd" fill-opacity="1" /><path clip-path="url(#clip060)" d="M49.9359 760.675 L28.3562 760.675 L28.3562 754.818 L49.7131 754.818 Q54.7739 754.818 57.3202 752.845 Q59.8346 750.872 59.8346 746.925 Q59.8346 742.182 56.8109 739.445 Q53.7872 736.676 48.5673 736.676 L28.3562 736.676 L28.3562 730.82 L64.0042 730.82 L64.0042 736.676 L58.5296 736.676 Q61.7762 738.809 63.3676 741.641 Q64.9272 744.442 64.9272 748.166 Q64.9272 754.309 61.1078 757.492 Q57.2883 760.675 49.9359 760.675 M27.4968 745.938 L27.4968 745.938 Z" fill="#333f48" fill-rule="evenodd" fill-opacity="1" /><path clip-path="url(#clip060)" d="M44.7161 688.265 L47.5806 688.265 L47.5806 715.192 Q53.6281 714.81 56.8109 711.563 Q59.9619 708.285 59.9619 702.46 Q59.9619 699.087 59.1344 695.936 Q58.3069 692.753 56.6518 689.634 L62.1899 689.634 Q63.5267 692.785 64.227 696.095 Q64.9272 699.405 64.9272 702.811 Q64.9272 711.341 59.9619 716.338 Q54.9967 721.303 46.5303 721.303 Q37.7774 721.303 32.6531 716.592 Q27.4968 711.85 27.4968 703.829 Q27.4968 696.636 32.1438 692.466 Q36.7589 688.265 44.7161 688.265 M42.9973 694.121 Q38.1912 694.185 35.3266 696.827 Q32.4621 699.437 32.4621 703.765 Q32.4621 708.667 35.2312 711.627 Q38.0002 714.555 43.0292 715.001 L42.9973 694.121 Z" fill="#333f48" fill-rule="evenodd" fill-opacity="1" /><path clip-path="url(#clip060)" d="M42.4881 649.02 L64.0042 649.02 L64.0042 654.877 L42.679 654.877 Q37.6183 654.877 35.1038 656.85 Q32.5894 658.823 32.5894 662.77 Q32.5894 667.513 35.6131 670.25 Q38.6368 672.987 43.8567 672.987 L64.0042 672.987 L64.0042 678.875 L28.3562 678.875 L28.3562 672.987 L33.8944 672.987 Q30.6797 670.887 29.0883 668.054 Q27.4968 665.189 27.4968 661.465 Q27.4968 655.322 31.3163 652.171 Q35.1038 649.02 42.4881 649.02 Z" fill="#333f48" fill-rule="evenodd" fill-opacity="1" /><path clip-path="url(#clip060)" d="M29.7248 611.685 L35.1993 611.685 Q33.8307 614.168 33.1623 616.683 Q32.4621 619.165 32.4621 621.711 Q32.4621 627.409 36.0905 630.56 Q39.6872 633.711 46.212 633.711 Q52.7369 633.711 56.3653 630.56 Q59.9619 627.409 59.9619 621.711 Q59.9619 619.165 59.2935 616.683 Q58.5933 614.168 57.2247 611.685 L62.6355 611.685 Q63.7814 614.136 64.3543 616.778 Q64.9272 619.388 64.9272 622.348 Q64.9272 630.401 59.8664 635.143 Q54.8057 639.886 46.212 639.886 Q37.491 639.886 32.4939 635.111 Q27.4968 630.305 27.4968 621.966 Q27.4968 619.261 28.0697 616.683 Q28.6108 614.104 29.7248 611.685 Z" fill="#333f48" fill-rule="evenodd" fill-opacity="1" /><path clip-path="url(#clip060)" d="M67.3143 586.668 Q73.68 589.151 75.6216 591.506 Q77.5631 593.861 77.5631 597.808 L77.5631 602.487 L72.6615 602.487 L72.6615 599.05 Q72.6615 596.631 71.5157 595.294 Q70.3699 593.957 66.1048 592.334 L63.4312 591.283 L28.3562 605.702 L28.3562 599.495 L56.238 588.355 L28.3562 577.215 L28.3562 571.009 L67.3143 586.668 Z" fill="#333f48" fill-rule="evenodd" fill-opacity="1" /><path clip-path="url(#clip062)" d="
M474.298 1411.97 L474.298 1416.95 L523.362 1416.95 L523.362 1411.97 L474.298 1411.97 L474.298 1411.97  Z
  " fill="#00578a" fill-rule="evenodd" fill-opacity="0.5"/>
<polyline clip-path="url(#clip062)" style="stroke:#333f48; stroke-linecap:round; stroke-linejoin:round; stroke-width:8; stroke-opacity:0.5; fill:none" points="
  474.298,1411.97 474.298,1416.95 523.362,1416.95 523.362,1411.97 474.298,1411.97 
  "/>
<path clip-path="url(#clip062)" d="
M523.362 1416.95 L523.362 1416.95 L572.426 1416.95 L572.426 1416.95 L523.362 1416.95 L523.362 1416.95  Z
  " fill="#00578a" fill-rule="evenodd" fill-opacity="0.5"/>
<polyline clip-path="url(#clip062)" style="stroke:#333f48; stroke-linecap:round; stroke-linejoin:round; stroke-width:8; stroke-opacity:0.5; fill:none" points="
  523.362,1416.95 523.362,1416.95 572.426,1416.95 523.362,1416.95 
  "/>
<path clip-path="url(#clip062)" d="
M572.426 1405.75 L572.426 1416.95 L621.49 1416.95 L621.49 1405.75 L572.426 1405.75 L572.426 1405.75  Z
  " fill="#00578a" fill-rule="evenodd" fill-opacity="0.5"/>
<polyline clip-path="url(#clip062)" style="stroke:#333f48; stroke-linecap:round; stroke-linejoin:round; stroke-width:8; stroke-opacity:0.5; fill:none" points="
  572.426,1405.75 572.426,1416.95 621.49,1416.95 621.49,1405.75 572.426,1405.75 
  "/>
<path clip-path="url(#clip062)" d="
M621.49 1406.99 L621.49 1416.95 L670.555 1416.95 L670.555 1406.99 L621.49 1406.99 L621.49 1406.99  Z
  " fill="#00578a" fill-rule="evenodd" fill-opacity="0.5"/>
<polyline clip-path="url(#clip062)" style="stroke:#333f48; stroke-linecap:round; stroke-linejoin:round; stroke-width:8; stroke-opacity:0.5; fill:none" points="
  621.49,1406.99 621.49,1416.95 670.555,1416.95 670.555,1406.99 621.49,1406.99 
  "/>
<path clip-path="url(#clip062)" d="
M670.555 1398.28 L670.555 1416.95 L719.619 1416.95 L719.619 1398.28 L670.555 1398.28 L670.555 1398.28  Z
  " fill="#00578a" fill-rule="evenodd" fill-opacity="0.5"/>
<polyline clip-path="url(#clip062)" style="stroke:#333f48; stroke-linecap:round; stroke-linejoin:round; stroke-width:8; stroke-opacity:0.5; fill:none" points="
  670.555,1398.28 670.555,1416.95 719.619,1416.95 719.619,1398.28 670.555,1398.28 
  "/>
<path clip-path="url(#clip062)" d="
M719.619 1367.15 L719.619 1416.95 L768.683 1416.95 L768.683 1367.15 L719.619 1367.15 L719.619 1367.15  Z
  " fill="#00578a" fill-rule="evenodd" fill-opacity="0.5"/>
<polyline clip-path="url(#clip062)" style="stroke:#333f48; stroke-linecap:round; stroke-linejoin:round; stroke-width:8; stroke-opacity:0.5; fill:none" points="
  719.619,1367.15 719.619,1416.95 768.683,1416.95 768.683,1367.15 719.619,1367.15 
  "/>
<path clip-path="url(#clip062)" d="
M768.683 1350.96 L768.683 1416.95 L817.747 1416.95 L817.747 1350.96 L768.683 1350.96 L768.683 1350.96  Z
  " fill="#00578a" fill-rule="evenodd" fill-opacity="0.5"/>
<polyline clip-path="url(#clip062)" style="stroke:#333f48; stroke-linecap:round; stroke-linejoin:round; stroke-width:8; stroke-opacity:0.5; fill:none" points="
  768.683,1350.96 768.683,1416.95 817.747,1416.95 817.747,1350.96 768.683,1350.96 
  "/>
<path clip-path="url(#clip062)" d="
M817.747 1289.94 L817.747 1416.95 L866.812 1416.95 L866.812 1289.94 L817.747 1289.94 L817.747 1289.94  Z
  " fill="#00578a" fill-rule="evenodd" fill-opacity="0.5"/>
<polyline clip-path="url(#clip062)" style="stroke:#333f48; stroke-linecap:round; stroke-linejoin:round; stroke-width:8; stroke-opacity:0.5; fill:none" points="
  817.747,1289.94 817.747,1416.95 866.812,1416.95 866.812,1289.94 817.747,1289.94 
  "/>
<path clip-path="url(#clip062)" d="
M866.812 1204.03 L866.812 1416.95 L915.876 1416.95 L915.876 1204.03 L866.812 1204.03 L866.812 1204.03  Z
  " fill="#00578a" fill-rule="evenodd" fill-opacity="0.5"/>
<polyline clip-path="url(#clip062)" style="stroke:#333f48; stroke-linecap:round; stroke-linejoin:round; stroke-width:8; stroke-opacity:0.5; fill:none" points="
  866.812,1204.03 866.812,1416.95 915.876,1416.95 915.876,1204.03 866.812,1204.03 
  "/>
<path clip-path="url(#clip062)" d="
M915.876 1136.79 L915.876 1416.95 L964.94 1416.95 L964.94 1136.79 L915.876 1136.79 L915.876 1136.79  Z
  " fill="#00578a" fill-rule="evenodd" fill-opacity="0.5"/>
<polyline clip-path="url(#clip062)" style="stroke:#333f48; stroke-linecap:round; stroke-linejoin:round; stroke-width:8; stroke-opacity:0.5; fill:none" points="
  915.876,1136.79 915.876,1416.95 964.94,1416.95 964.94,1136.79 915.876,1136.79 
  "/>
<path clip-path="url(#clip062)" d="
M964.94 1050.87 L964.94 1416.95 L1014 1416.95 L1014 1050.87 L964.94 1050.87 L964.94 1050.87  Z
  " fill="#00578a" fill-rule="evenodd" fill-opacity="0.5"/>
<polyline clip-path="url(#clip062)" style="stroke:#333f48; stroke-linecap:round; stroke-linejoin:round; stroke-width:8; stroke-opacity:0.5; fill:none" points="
  964.94,1050.87 964.94,1416.95 1014,1416.95 1014,1050.87 964.94,1050.87 
  "/>
<path clip-path="url(#clip062)" d="
M1014 856.618 L1014 1416.95 L1063.07 1416.95 L1063.07 856.618 L1014 856.618 L1014 856.618  Z
  " fill="#00578a" fill-rule="evenodd" fill-opacity="0.5"/>
<polyline clip-path="url(#clip062)" style="stroke:#333f48; stroke-linecap:round; stroke-linejoin:round; stroke-width:8; stroke-opacity:0.5; fill:none" points="
  1014,856.618 1014,1416.95 1063.07,1416.95 1063.07,856.618 1014,856.618 
  "/>
<path clip-path="url(#clip062)" d="
M1063.07 826.733 L1063.07 1416.95 L1112.13 1416.95 L1112.13 826.733 L1063.07 826.733 L1063.07 826.733  Z
  " fill="#00578a" fill-rule="evenodd" fill-opacity="0.5"/>
<polyline clip-path="url(#clip062)" style="stroke:#333f48; stroke-linecap:round; stroke-linejoin:round; stroke-width:8; stroke-opacity:0.5; fill:none" points="
  1063.07,826.733 1063.07,1416.95 1112.13,1416.95 1112.13,826.733 1063.07,826.733 
  "/>
<path clip-path="url(#clip062)" d="
M1112.13 540.34 L1112.13 1416.95 L1161.2 1416.95 L1161.2 540.34 L1112.13 540.34 L1112.13 540.34  Z
  " fill="#00578a" fill-rule="evenodd" fill-opacity="0.5"/>
<polyline clip-path="url(#clip062)" style="stroke:#333f48; stroke-linecap:round; stroke-linejoin:round; stroke-width:8; stroke-opacity:0.5; fill:none" points="
  1112.13,540.34 1112.13,1416.95 1161.2,1416.95 1161.2,540.34 1112.13,540.34 
  "/>
<path clip-path="url(#clip062)" d="
M1161.2 534.114 L1161.2 1416.95 L1210.26 1416.95 L1210.26 534.114 L1161.2 534.114 L1161.2 534.114  Z
  " fill="#00578a" fill-rule="evenodd" fill-opacity="0.5"/>
<polyline clip-path="url(#clip062)" style="stroke:#333f48; stroke-linecap:round; stroke-linejoin:round; stroke-width:8; stroke-opacity:0.5; fill:none" points="
  1161.2,534.114 1161.2,1416.95 1210.26,1416.95 1210.26,534.114 1161.2,534.114 
  "/>
<path clip-path="url(#clip062)" d="
M1210.26 383.446 L1210.26 1416.95 L1259.33 1416.95 L1259.33 383.446 L1210.26 383.446 L1210.26 383.446  Z
  " fill="#00578a" fill-rule="evenodd" fill-opacity="0.5"/>
<polyline clip-path="url(#clip062)" style="stroke:#333f48; stroke-linecap:round; stroke-linejoin:round; stroke-width:8; stroke-opacity:0.5; fill:none" points="
  1210.26,383.446 1210.26,1416.95 1259.33,1416.95 1259.33,383.446 1210.26,383.446 
  "/>
<path clip-path="url(#clip062)" d="
M1259.33 405.859 L1259.33 1416.95 L1308.39 1416.95 L1308.39 405.859 L1259.33 405.859 L1259.33 405.859  Z
  " fill="#00578a" fill-rule="evenodd" fill-opacity="0.5"/>
<polyline clip-path="url(#clip062)" style="stroke:#333f48; stroke-linecap:round; stroke-linejoin:round; stroke-width:8; stroke-opacity:0.5; fill:none" points="
  1259.33,405.859 1259.33,1416.95 1308.39,1416.95 1308.39,405.859 1259.33,405.859 
  "/>
<path clip-path="url(#clip062)" d="
M1308.39 318.696 L1308.39 1416.95 L1357.45 1416.95 L1357.45 318.696 L1308.39 318.696 L1308.39 318.696  Z
  " fill="#00578a" fill-rule="evenodd" fill-opacity="0.5"/>
<polyline clip-path="url(#clip062)" style="stroke:#333f48; stroke-linecap:round; stroke-linejoin:round; stroke-width:8; stroke-opacity:0.5; fill:none" points="
  1308.39,318.696 1308.39,1416.95 1357.45,1416.95 1357.45,318.696 1308.39,318.696 
  "/>
<path clip-path="url(#clip062)" d="
M1357.45 367.258 L1357.45 1416.95 L1406.52 1416.95 L1406.52 367.258 L1357.45 367.258 L1357.45 367.258  Z
  " fill="#00578a" fill-rule="evenodd" fill-opacity="0.5"/>
<polyline clip-path="url(#clip062)" style="stroke:#333f48; stroke-linecap:round; stroke-linejoin:round; stroke-width:8; stroke-opacity:0.5; fill:none" points="
  1357.45,367.258 1357.45,1416.95 1406.52,1416.95 1406.52,367.258 1357.45,367.258 
  "/>
<path clip-path="url(#clip062)" d="
M1406.52 500.494 L1406.52 1416.95 L1455.58 1416.95 L1455.58 500.494 L1406.52 500.494 L1406.52 500.494  Z
  " fill="#00578a" fill-rule="evenodd" fill-opacity="0.5"/>
<polyline clip-path="url(#clip062)" style="stroke:#333f48; stroke-linecap:round; stroke-linejoin:round; stroke-width:8; stroke-opacity:0.5; fill:none" points="
  1406.52,500.494 1406.52,1416.95 1455.58,1416.95 1455.58,500.494 1406.52,500.494 
  "/>
<path clip-path="url(#clip062)" d="
M1455.58 556.527 L1455.58 1416.95 L1504.65 1416.95 L1504.65 556.527 L1455.58 556.527 L1455.58 556.527  Z
  " fill="#00578a" fill-rule="evenodd" fill-opacity="0.5"/>
<polyline clip-path="url(#clip062)" style="stroke:#333f48; stroke-linecap:round; stroke-linejoin:round; stroke-width:8; stroke-opacity:0.5; fill:none" points="
  1455.58,556.527 1455.58,1416.95 1504.65,1416.95 1504.65,556.527 1455.58,556.527 
  "/>
<path clip-path="url(#clip062)" d="
M1504.65 727.118 L1504.65 1416.95 L1553.71 1416.95 L1553.71 727.118 L1504.65 727.118 L1504.65 727.118  Z
  " fill="#00578a" fill-rule="evenodd" fill-opacity="0.5"/>
<polyline clip-path="url(#clip062)" style="stroke:#333f48; stroke-linecap:round; stroke-linejoin:round; stroke-width:8; stroke-opacity:0.5; fill:none" points="
  1504.65,727.118 1504.65,1416.95 1553.71,1416.95 1553.71,727.118 1504.65,727.118 
  "/>
<path clip-path="url(#clip062)" d="
M1553.71 881.522 L1553.71 1416.95 L1602.77 1416.95 L1602.77 881.522 L1553.71 881.522 L1553.71 881.522  Z
  " fill="#00578a" fill-rule="evenodd" fill-opacity="0.5"/>
<polyline clip-path="url(#clip062)" style="stroke:#333f48; stroke-linecap:round; stroke-linejoin:round; stroke-width:8; stroke-opacity:0.5; fill:none" points="
  1553.71,881.522 1553.71,1416.95 1602.77,1416.95 1602.77,881.522 1553.71,881.522 
  "/>
<path clip-path="url(#clip062)" d="
M1602.77 1008.53 L1602.77 1416.95 L1651.84 1416.95 L1651.84 1008.53 L1602.77 1008.53 L1602.77 1008.53  Z
  " fill="#00578a" fill-rule="evenodd" fill-opacity="0.5"/>
<polyline clip-path="url(#clip062)" style="stroke:#333f48; stroke-linecap:round; stroke-linejoin:round; stroke-width:8; stroke-opacity:0.5; fill:none" points="
  1602.77,1008.53 1602.77,1416.95 1651.84,1416.95 1651.84,1008.53 1602.77,1008.53 
  "/>
<path clip-path="url(#clip062)" d="
M1651.84 1151.73 L1651.84 1416.95 L1700.9 1416.95 L1700.9 1151.73 L1651.84 1151.73 L1651.84 1151.73  Z
  " fill="#00578a" fill-rule="evenodd" fill-opacity="0.5"/>
<polyline clip-path="url(#clip062)" style="stroke:#333f48; stroke-linecap:round; stroke-linejoin:round; stroke-width:8; stroke-opacity:0.5; fill:none" points="
  1651.84,1151.73 1651.84,1416.95 1700.9,1416.95 1700.9,1151.73 1651.84,1151.73 
  "/>
<path clip-path="url(#clip062)" d="
M1700.9 1207.76 L1700.9 1416.95 L1749.97 1416.95 L1749.97 1207.76 L1700.9 1207.76 L1700.9 1207.76  Z
  " fill="#00578a" fill-rule="evenodd" fill-opacity="0.5"/>
<polyline clip-path="url(#clip062)" style="stroke:#333f48; stroke-linecap:round; stroke-linejoin:round; stroke-width:8; stroke-opacity:0.5; fill:none" points="
  1700.9,1207.76 1700.9,1416.95 1749.97,1416.95 1749.97,1207.76 1700.9,1207.76 
  "/>
<path clip-path="url(#clip062)" d="
M1749.97 1294.93 L1749.97 1416.95 L1799.03 1416.95 L1799.03 1294.93 L1749.97 1294.93 L1749.97 1294.93  Z
  " fill="#00578a" fill-rule="evenodd" fill-opacity="0.5"/>
<polyline clip-path="url(#clip062)" style="stroke:#333f48; stroke-linecap:round; stroke-linejoin:round; stroke-width:8; stroke-opacity:0.5; fill:none" points="
  1749.97,1294.93 1749.97,1416.95 1799.03,1416.95 1799.03,1294.93 1749.97,1294.93 
  "/>
<path clip-path="url(#clip062)" d="
M1799.03 1337.26 L1799.03 1416.95 L1848.1 1416.95 L1848.1 1337.26 L1799.03 1337.26 L1799.03 1337.26  Z
  " fill="#00578a" fill-rule="evenodd" fill-opacity="0.5"/>
<polyline clip-path="url(#clip062)" style="stroke:#333f48; stroke-linecap:round; stroke-linejoin:round; stroke-width:8; stroke-opacity:0.5; fill:none" points="
  1799.03,1337.26 1799.03,1416.95 1848.1,1416.95 1848.1,1337.26 1799.03,1337.26 
  "/>
<path clip-path="url(#clip062)" d="
M1848.1 1360.92 L1848.1 1416.95 L1897.16 1416.95 L1897.16 1360.92 L1848.1 1360.92 L1848.1 1360.92  Z
  " fill="#00578a" fill-rule="evenodd" fill-opacity="0.5"/>
<polyline clip-path="url(#clip062)" style="stroke:#333f48; stroke-linecap:round; stroke-linejoin:round; stroke-width:8; stroke-opacity:0.5; fill:none" points="
  1848.1,1360.92 1848.1,1416.95 1897.16,1416.95 1897.16,1360.92 1848.1,1360.92 
  "/>
<path clip-path="url(#clip062)" d="
M1897.16 1392.05 L1897.16 1416.95 L1946.22 1416.95 L1946.22 1392.05 L1897.16 1392.05 L1897.16 1392.05  Z
  " fill="#00578a" fill-rule="evenodd" fill-opacity="0.5"/>
<polyline clip-path="url(#clip062)" style="stroke:#333f48; stroke-linecap:round; stroke-linejoin:round; stroke-width:8; stroke-opacity:0.5; fill:none" points="
  1897.16,1392.05 1897.16,1416.95 1946.22,1416.95 1946.22,1392.05 1897.16,1392.05 
  "/>
<path clip-path="url(#clip062)" d="
M1946.22 1404.5 L1946.22 1416.95 L1995.29 1416.95 L1995.29 1404.5 L1946.22 1404.5 L1946.22 1404.5  Z
  " fill="#00578a" fill-rule="evenodd" fill-opacity="0.5"/>
<polyline clip-path="url(#clip062)" style="stroke:#333f48; stroke-linecap:round; stroke-linejoin:round; stroke-width:8; stroke-opacity:0.5; fill:none" points="
  1946.22,1404.5 1946.22,1416.95 1995.29,1416.95 1995.29,1404.5 1946.22,1404.5 
  "/>
<path clip-path="url(#clip062)" d="
M1995.29 1408.24 L1995.29 1416.95 L2044.35 1416.95 L2044.35 1408.24 L1995.29 1408.24 L1995.29 1408.24  Z
  " fill="#00578a" fill-rule="evenodd" fill-opacity="0.5"/>
<polyline clip-path="url(#clip062)" style="stroke:#333f48; stroke-linecap:round; stroke-linejoin:round; stroke-width:8; stroke-opacity:0.5; fill:none" points="
  1995.29,1408.24 1995.29,1416.95 2044.35,1416.95 2044.35,1408.24 1995.29,1408.24 
  "/>
<path clip-path="url(#clip062)" d="
M2044.35 1410.73 L2044.35 1416.95 L2093.42 1416.95 L2093.42 1410.73 L2044.35 1410.73 L2044.35 1410.73  Z
  " fill="#00578a" fill-rule="evenodd" fill-opacity="0.5"/>
<polyline clip-path="url(#clip062)" style="stroke:#333f48; stroke-linecap:round; stroke-linejoin:round; stroke-width:8; stroke-opacity:0.5; fill:none" points="
  2044.35,1410.73 2044.35,1416.95 2093.42,1416.95 2093.42,1410.73 2044.35,1410.73 
  "/>
<path clip-path="url(#clip062)" d="
M2093.42 1411.97 L2093.42 1416.95 L2142.48 1416.95 L2142.48 1411.97 L2093.42 1411.97 L2093.42 1411.97  Z
  " fill="#00578a" fill-rule="evenodd" fill-opacity="0.5"/>
<polyline clip-path="url(#clip062)" style="stroke:#333f48; stroke-linecap:round; stroke-linejoin:round; stroke-width:8; stroke-opacity:0.5; fill:none" points="
  2093.42,1411.97 2093.42,1416.95 2142.48,1416.95 2142.48,1411.97 2093.42,1411.97 
  "/>
<path clip-path="url(#clip062)" d="
M2142.48 1416.95 L2142.48 1416.95 L2191.55 1416.95 L2191.55 1416.95 L2142.48 1416.95 L2142.48 1416.95  Z
  " fill="#00578a" fill-rule="evenodd" fill-opacity="0.5"/>
<polyline clip-path="url(#clip062)" style="stroke:#333f48; stroke-linecap:round; stroke-linejoin:round; stroke-width:8; stroke-opacity:0.5; fill:none" points="
  2142.48,1416.95 2142.48,1416.95 2191.55,1416.95 2142.48,1416.95 
  "/>
<path clip-path="url(#clip062)" d="
M2191.55 1414.46 L2191.55 1416.95 L2240.61 1416.95 L2240.61 1414.46 L2191.55 1414.46 L2191.55 1414.46  Z
  " fill="#00578a" fill-rule="evenodd" fill-opacity="0.5"/>
<polyline clip-path="url(#clip062)" style="stroke:#333f48; stroke-linecap:round; stroke-linejoin:round; stroke-width:8; stroke-opacity:0.5; fill:none" points="
  2191.55,1414.46 2191.55,1416.95 2240.61,1416.95 2240.61,1414.46 2191.55,1414.46 
  "/>
<circle clip-path="url(#clip062)" style="fill:#00578a; stroke:none; fill-opacity:0" cx="498.83" cy="1411.97" r="2"/>
<circle clip-path="url(#clip062)" style="fill:#00578a; stroke:none; fill-opacity:0" cx="547.894" cy="1416.95" r="2"/>
<circle clip-path="url(#clip062)" style="fill:#00578a; stroke:none; fill-opacity:0" cx="596.958" cy="1405.75" r="2"/>
<circle clip-path="url(#clip062)" style="fill:#00578a; stroke:none; fill-opacity:0" cx="646.022" cy="1406.99" r="2"/>
<circle clip-path="url(#clip062)" style="fill:#00578a; stroke:none; fill-opacity:0" cx="695.087" cy="1398.28" r="2"/>
<circle clip-path="url(#clip062)" style="fill:#00578a; stroke:none; fill-opacity:0" cx="744.151" cy="1367.15" r="2"/>
<circle clip-path="url(#clip062)" style="fill:#00578a; stroke:none; fill-opacity:0" cx="793.215" cy="1350.96" r="2"/>
<circle clip-path="url(#clip062)" style="fill:#00578a; stroke:none; fill-opacity:0" cx="842.279" cy="1289.94" r="2"/>
<circle clip-path="url(#clip062)" style="fill:#00578a; stroke:none; fill-opacity:0" cx="891.344" cy="1204.03" r="2"/>
<circle clip-path="url(#clip062)" style="fill:#00578a; stroke:none; fill-opacity:0" cx="940.408" cy="1136.79" r="2"/>
<circle clip-path="url(#clip062)" style="fill:#00578a; stroke:none; fill-opacity:0" cx="989.472" cy="1050.87" r="2"/>
<circle clip-path="url(#clip062)" style="fill:#00578a; stroke:none; fill-opacity:0" cx="1038.54" cy="856.618" r="2"/>
<circle clip-path="url(#clip062)" style="fill:#00578a; stroke:none; fill-opacity:0" cx="1087.6" cy="826.733" r="2"/>
<circle clip-path="url(#clip062)" style="fill:#00578a; stroke:none; fill-opacity:0" cx="1136.66" cy="540.34" r="2"/>
<circle clip-path="url(#clip062)" style="fill:#00578a; stroke:none; fill-opacity:0" cx="1185.73" cy="534.114" r="2"/>
<circle clip-path="url(#clip062)" style="fill:#00578a; stroke:none; fill-opacity:0" cx="1234.79" cy="383.446" r="2"/>
<circle clip-path="url(#clip062)" style="fill:#00578a; stroke:none; fill-opacity:0" cx="1283.86" cy="405.859" r="2"/>
<circle clip-path="url(#clip062)" style="fill:#00578a; stroke:none; fill-opacity:0" cx="1332.92" cy="318.696" r="2"/>
<circle clip-path="url(#clip062)" style="fill:#00578a; stroke:none; fill-opacity:0" cx="1381.99" cy="367.258" r="2"/>
<circle clip-path="url(#clip062)" style="fill:#00578a; stroke:none; fill-opacity:0" cx="1431.05" cy="500.494" r="2"/>
<circle clip-path="url(#clip062)" style="fill:#00578a; stroke:none; fill-opacity:0" cx="1480.11" cy="556.527" r="2"/>
<circle clip-path="url(#clip062)" style="fill:#00578a; stroke:none; fill-opacity:0" cx="1529.18" cy="727.118" r="2"/>
<circle clip-path="url(#clip062)" style="fill:#00578a; stroke:none; fill-opacity:0" cx="1578.24" cy="881.522" r="2"/>
<circle clip-path="url(#clip062)" style="fill:#00578a; stroke:none; fill-opacity:0" cx="1627.31" cy="1008.53" r="2"/>
<circle clip-path="url(#clip062)" style="fill:#00578a; stroke:none; fill-opacity:0" cx="1676.37" cy="1151.73" r="2"/>
<circle clip-path="url(#clip062)" style="fill:#00578a; stroke:none; fill-opacity:0" cx="1725.44" cy="1207.76" r="2"/>
<circle clip-path="url(#clip062)" style="fill:#00578a; stroke:none; fill-opacity:0" cx="1774.5" cy="1294.93" r="2"/>
<circle clip-path="url(#clip062)" style="fill:#00578a; stroke:none; fill-opacity:0" cx="1823.56" cy="1337.26" r="2"/>
<circle clip-path="url(#clip062)" style="fill:#00578a; stroke:none; fill-opacity:0" cx="1872.63" cy="1360.92" r="2"/>
<circle clip-path="url(#clip062)" style="fill:#00578a; stroke:none; fill-opacity:0" cx="1921.69" cy="1392.05" r="2"/>
<circle clip-path="url(#clip062)" style="fill:#00578a; stroke:none; fill-opacity:0" cx="1970.76" cy="1404.5" r="2"/>
<circle clip-path="url(#clip062)" style="fill:#00578a; stroke:none; fill-opacity:0" cx="2019.82" cy="1408.24" r="2"/>
<circle clip-path="url(#clip062)" style="fill:#00578a; stroke:none; fill-opacity:0" cx="2068.89" cy="1410.73" r="2"/>
<circle clip-path="url(#clip062)" style="fill:#00578a; stroke:none; fill-opacity:0" cx="2117.95" cy="1411.97" r="2"/>
<circle clip-path="url(#clip062)" style="fill:#00578a; stroke:none; fill-opacity:0" cx="2167.01" cy="1416.95" r="2"/>
<circle clip-path="url(#clip062)" style="fill:#00578a; stroke:none; fill-opacity:0" cx="2216.08" cy="1414.46" r="2"/>
<path clip-path="url(#clip062)" d="
M376.169 1414.46 L376.169 1416.95 L425.233 1416.95 L425.233 1414.46 L376.169 1414.46 L376.169 1414.46  Z
  " fill="#af0078" fill-rule="evenodd" fill-opacity="0.5"/>
<polyline clip-path="url(#clip062)" style="stroke:#333f48; stroke-linecap:round; stroke-linejoin:round; stroke-width:8; stroke-opacity:0.5; fill:none" points="
  376.169,1414.46 376.169,1416.95 425.233,1416.95 425.233,1414.46 376.169,1414.46 
  "/>
<path clip-path="url(#clip062)" d="
M425.233 1415.71 L425.233 1416.95 L474.298 1416.95 L474.298 1415.71 L425.233 1415.71 L425.233 1415.71  Z
  " fill="#af0078" fill-rule="evenodd" fill-opacity="0.5"/>
<polyline clip-path="url(#clip062)" style="stroke:#333f48; stroke-linecap:round; stroke-linejoin:round; stroke-width:8; stroke-opacity:0.5; fill:none" points="
  425.233,1415.71 425.233,1416.95 474.298,1416.95 474.298,1415.71 425.233,1415.71 
  "/>
<path clip-path="url(#clip062)" d="
M474.298 1405.75 L474.298 1416.95 L523.362 1416.95 L523.362 1405.75 L474.298 1405.75 L474.298 1405.75  Z
  " fill="#af0078" fill-rule="evenodd" fill-opacity="0.5"/>
<polyline clip-path="url(#clip062)" style="stroke:#333f48; stroke-linecap:round; stroke-linejoin:round; stroke-width:8; stroke-opacity:0.5; fill:none" points="
  474.298,1405.75 474.298,1416.95 523.362,1416.95 523.362,1405.75 474.298,1405.75 
  "/>
<path clip-path="url(#clip062)" d="
M523.362 1409.48 L523.362 1416.95 L572.426 1416.95 L572.426 1409.48 L523.362 1409.48 L523.362 1409.48  Z
  " fill="#af0078" fill-rule="evenodd" fill-opacity="0.5"/>
<polyline clip-path="url(#clip062)" style="stroke:#333f48; stroke-linecap:round; stroke-linejoin:round; stroke-width:8; stroke-opacity:0.5; fill:none" points="
  523.362,1409.48 523.362,1416.95 572.426,1416.95 572.426,1409.48 523.362,1409.48 
  "/>
<path clip-path="url(#clip062)" d="
M572.426 1402.01 L572.426 1416.95 L621.49 1416.95 L621.49 1402.01 L572.426 1402.01 L572.426 1402.01  Z
  " fill="#af0078" fill-rule="evenodd" fill-opacity="0.5"/>
<polyline clip-path="url(#clip062)" style="stroke:#333f48; stroke-linecap:round; stroke-linejoin:round; stroke-width:8; stroke-opacity:0.5; fill:none" points="
  572.426,1402.01 572.426,1416.95 621.49,1416.95 621.49,1402.01 572.426,1402.01 
  "/>
<path clip-path="url(#clip062)" d="
M621.49 1389.56 L621.49 1416.95 L670.555 1416.95 L670.555 1389.56 L621.49 1389.56 L621.49 1389.56  Z
  " fill="#af0078" fill-rule="evenodd" fill-opacity="0.5"/>
<polyline clip-path="url(#clip062)" style="stroke:#333f48; stroke-linecap:round; stroke-linejoin:round; stroke-width:8; stroke-opacity:0.5; fill:none" points="
  621.49,1389.56 621.49,1416.95 670.555,1416.95 670.555,1389.56 621.49,1389.56 
  "/>
<path clip-path="url(#clip062)" d="
M670.555 1359.68 L670.555 1416.95 L719.619 1416.95 L719.619 1359.68 L670.555 1359.68 L670.555 1359.68  Z
  " fill="#af0078" fill-rule="evenodd" fill-opacity="0.5"/>
<polyline clip-path="url(#clip062)" style="stroke:#333f48; stroke-linecap:round; stroke-linejoin:round; stroke-width:8; stroke-opacity:0.5; fill:none" points="
  670.555,1359.68 670.555,1416.95 719.619,1416.95 719.619,1359.68 670.555,1359.68 
  "/>
<path clip-path="url(#clip062)" d="
M719.619 1307.38 L719.619 1416.95 L768.683 1416.95 L768.683 1307.38 L719.619 1307.38 L719.619 1307.38  Z
  " fill="#af0078" fill-rule="evenodd" fill-opacity="0.5"/>
<polyline clip-path="url(#clip062)" style="stroke:#333f48; stroke-linecap:round; stroke-linejoin:round; stroke-width:8; stroke-opacity:0.5; fill:none" points="
  719.619,1307.38 719.619,1416.95 768.683,1416.95 768.683,1307.38 719.619,1307.38 
  "/>
<path clip-path="url(#clip062)" d="
M768.683 1253.83 L768.683 1416.95 L817.747 1416.95 L817.747 1253.83 L768.683 1253.83 L768.683 1253.83  Z
  " fill="#af0078" fill-rule="evenodd" fill-opacity="0.5"/>
<polyline clip-path="url(#clip062)" style="stroke:#333f48; stroke-linecap:round; stroke-linejoin:round; stroke-width:8; stroke-opacity:0.5; fill:none" points="
  768.683,1253.83 768.683,1416.95 817.747,1416.95 817.747,1253.83 768.683,1253.83 
  "/>
<path clip-path="url(#clip062)" d="
M817.747 1166.67 L817.747 1416.95 L866.812 1416.95 L866.812 1166.67 L817.747 1166.67 L817.747 1166.67  Z
  " fill="#af0078" fill-rule="evenodd" fill-opacity="0.5"/>
<polyline clip-path="url(#clip062)" style="stroke:#333f48; stroke-linecap:round; stroke-linejoin:round; stroke-width:8; stroke-opacity:0.5; fill:none" points="
  817.747,1166.67 817.747,1416.95 866.812,1416.95 866.812,1166.67 817.747,1166.67 
  "/>
<path clip-path="url(#clip062)" d="
M866.812 1095.69 L866.812 1416.95 L915.876 1416.95 L915.876 1095.69 L866.812 1095.69 L866.812 1095.69  Z
  " fill="#af0078" fill-rule="evenodd" fill-opacity="0.5"/>
<polyline clip-path="url(#clip062)" style="stroke:#333f48; stroke-linecap:round; stroke-linejoin:round; stroke-width:8; stroke-opacity:0.5; fill:none" points="
  866.812,1095.69 866.812,1416.95 915.876,1416.95 915.876,1095.69 866.812,1095.69 
  "/>
<path clip-path="url(#clip062)" d="
M915.876 997.325 L915.876 1416.95 L964.94 1416.95 L964.94 997.325 L915.876 997.325 L915.876 997.325  Z
  " fill="#af0078" fill-rule="evenodd" fill-opacity="0.5"/>
<polyline clip-path="url(#clip062)" style="stroke:#333f48; stroke-linecap:round; stroke-linejoin:round; stroke-width:8; stroke-opacity:0.5; fill:none" points="
  915.876,997.325 915.876,1416.95 964.94,1416.95 964.94,997.325 915.876,997.325 
  "/>
<path clip-path="url(#clip062)" d="
M964.94 850.392 L964.94 1416.95 L1014 1416.95 L1014 850.392 L964.94 850.392 L964.94 850.392  Z
  " fill="#af0078" fill-rule="evenodd" fill-opacity="0.5"/>
<polyline clip-path="url(#clip062)" style="stroke:#333f48; stroke-linecap:round; stroke-linejoin:round; stroke-width:8; stroke-opacity:0.5; fill:none" points="
  964.94,850.392 964.94,1416.95 1014,1416.95 1014,850.392 964.94,850.392 
  "/>
<path clip-path="url(#clip062)" d="
M1014 676.065 L1014 1416.95 L1063.07 1416.95 L1063.07 676.065 L1014 676.065 L1014 676.065  Z
  " fill="#af0078" fill-rule="evenodd" fill-opacity="0.5"/>
<polyline clip-path="url(#clip062)" style="stroke:#333f48; stroke-linecap:round; stroke-linejoin:round; stroke-width:8; stroke-opacity:0.5; fill:none" points="
  1014,676.065 1014,1416.95 1063.07,1416.95 1063.07,676.065 1014,676.065 
  "/>
<path clip-path="url(#clip062)" d="
M1063.07 557.772 L1063.07 1416.95 L1112.13 1416.95 L1112.13 557.772 L1063.07 557.772 L1063.07 557.772  Z
  " fill="#af0078" fill-rule="evenodd" fill-opacity="0.5"/>
<polyline clip-path="url(#clip062)" style="stroke:#333f48; stroke-linecap:round; stroke-linejoin:round; stroke-width:8; stroke-opacity:0.5; fill:none" points="
  1063.07,557.772 1063.07,1416.95 1112.13,1416.95 1112.13,557.772 1063.07,557.772 
  "/>
<path clip-path="url(#clip062)" d="
M1112.13 430.763 L1112.13 1416.95 L1161.2 1416.95 L1161.2 430.763 L1112.13 430.763 L1112.13 430.763  Z
  " fill="#af0078" fill-rule="evenodd" fill-opacity="0.5"/>
<polyline clip-path="url(#clip062)" style="stroke:#333f48; stroke-linecap:round; stroke-linejoin:round; stroke-width:8; stroke-opacity:0.5; fill:none" points="
  1112.13,430.763 1112.13,1416.95 1161.2,1416.95 1161.2,430.763 1112.13,430.763 
  "/>
<path clip-path="url(#clip062)" d="
M1161.2 336.128 L1161.2 1416.95 L1210.26 1416.95 L1210.26 336.128 L1161.2 336.128 L1161.2 336.128  Z
  " fill="#af0078" fill-rule="evenodd" fill-opacity="0.5"/>
<polyline clip-path="url(#clip062)" style="stroke:#333f48; stroke-linecap:round; stroke-linejoin:round; stroke-width:8; stroke-opacity:0.5; fill:none" points="
  1161.2,336.128 1161.2,1416.95 1210.26,1416.95 1210.26,336.128 1161.2,336.128 
  "/>
<path clip-path="url(#clip062)" d="
M1210.26 257.681 L1210.26 1416.95 L1259.33 1416.95 L1259.33 257.681 L1210.26 257.681 L1210.26 257.681  Z
  " fill="#af0078" fill-rule="evenodd" fill-opacity="0.5"/>
<polyline clip-path="url(#clip062)" style="stroke:#333f48; stroke-linecap:round; stroke-linejoin:round; stroke-width:8; stroke-opacity:0.5; fill:none" points="
  1210.26,257.681 1210.26,1416.95 1259.33,1416.95 1259.33,257.681 1210.26,257.681 
  "/>
<path clip-path="url(#clip062)" d="
M1259.33 336.128 L1259.33 1416.95 L1308.39 1416.95 L1308.39 336.128 L1259.33 336.128 L1259.33 336.128  Z
  " fill="#af0078" fill-rule="evenodd" fill-opacity="0.5"/>
<polyline clip-path="url(#clip062)" style="stroke:#333f48; stroke-linecap:round; stroke-linejoin:round; stroke-width:8; stroke-opacity:0.5; fill:none" points="
  1259.33,336.128 1259.33,1416.95 1308.39,1416.95 1308.39,336.128 1259.33,336.128 
  "/>
<path clip-path="url(#clip062)" d="
M1308.39 428.272 L1308.39 1416.95 L1357.45 1416.95 L1357.45 428.272 L1308.39 428.272 L1308.39 428.272  Z
  " fill="#af0078" fill-rule="evenodd" fill-opacity="0.5"/>
<polyline clip-path="url(#clip062)" style="stroke:#333f48; stroke-linecap:round; stroke-linejoin:round; stroke-width:8; stroke-opacity:0.5; fill:none" points="
  1308.39,428.272 1308.39,1416.95 1357.45,1416.95 1357.45,428.272 1308.39,428.272 
  "/>
<path clip-path="url(#clip062)" d="
M1357.45 502.984 L1357.45 1416.95 L1406.52 1416.95 L1406.52 502.984 L1357.45 502.984 L1357.45 502.984  Z
  " fill="#af0078" fill-rule="evenodd" fill-opacity="0.5"/>
<polyline clip-path="url(#clip062)" style="stroke:#333f48; stroke-linecap:round; stroke-linejoin:round; stroke-width:8; stroke-opacity:0.5; fill:none" points="
  1357.45,502.984 1357.45,1416.95 1406.52,1416.95 1406.52,502.984 1357.45,502.984 
  "/>
<path clip-path="url(#clip062)" d="
M1406.52 663.614 L1406.52 1416.95 L1455.58 1416.95 L1455.58 663.614 L1406.52 663.614 L1406.52 663.614  Z
  " fill="#af0078" fill-rule="evenodd" fill-opacity="0.5"/>
<polyline clip-path="url(#clip062)" style="stroke:#333f48; stroke-linecap:round; stroke-linejoin:round; stroke-width:8; stroke-opacity:0.5; fill:none" points="
  1406.52,663.614 1406.52,1416.95 1455.58,1416.95 1455.58,663.614 1406.52,663.614 
  "/>
<path clip-path="url(#clip062)" d="
M1455.58 800.584 L1455.58 1416.95 L1504.65 1416.95 L1504.65 800.584 L1455.58 800.584 L1455.58 800.584  Z
  " fill="#af0078" fill-rule="evenodd" fill-opacity="0.5"/>
<polyline clip-path="url(#clip062)" style="stroke:#333f48; stroke-linecap:round; stroke-linejoin:round; stroke-width:8; stroke-opacity:0.5; fill:none" points="
  1455.58,800.584 1455.58,1416.95 1504.65,1416.95 1504.65,800.584 1455.58,800.584 
  "/>
<path clip-path="url(#clip062)" d="
M1504.65 996.079 L1504.65 1416.95 L1553.71 1416.95 L1553.71 996.079 L1504.65 996.079 L1504.65 996.079  Z
  " fill="#af0078" fill-rule="evenodd" fill-opacity="0.5"/>
<polyline clip-path="url(#clip062)" style="stroke:#333f48; stroke-linecap:round; stroke-linejoin:round; stroke-width:8; stroke-opacity:0.5; fill:none" points="
  1504.65,996.079 1504.65,1416.95 1553.71,1416.95 1553.71,996.079 1504.65,996.079 
  "/>
<path clip-path="url(#clip062)" d="
M1553.71 1120.6 L1553.71 1416.95 L1602.77 1416.95 L1602.77 1120.6 L1553.71 1120.6 L1553.71 1120.6  Z
  " fill="#af0078" fill-rule="evenodd" fill-opacity="0.5"/>
<polyline clip-path="url(#clip062)" style="stroke:#333f48; stroke-linecap:round; stroke-linejoin:round; stroke-width:8; stroke-opacity:0.5; fill:none" points="
  1553.71,1120.6 1553.71,1416.95 1602.77,1416.95 1602.77,1120.6 1553.71,1120.6 
  "/>
<path clip-path="url(#clip062)" d="
M1602.77 1192.82 L1602.77 1416.95 L1651.84 1416.95 L1651.84 1192.82 L1602.77 1192.82 L1602.77 1192.82  Z
  " fill="#af0078" fill-rule="evenodd" fill-opacity="0.5"/>
<polyline clip-path="url(#clip062)" style="stroke:#333f48; stroke-linecap:round; stroke-linejoin:round; stroke-width:8; stroke-opacity:0.5; fill:none" points="
  1602.77,1192.82 1602.77,1416.95 1651.84,1416.95 1651.84,1192.82 1602.77,1192.82 
  "/>
<path clip-path="url(#clip062)" d="
M1651.84 1265.04 L1651.84 1416.95 L1700.9 1416.95 L1700.9 1265.04 L1651.84 1265.04 L1651.84 1265.04  Z
  " fill="#af0078" fill-rule="evenodd" fill-opacity="0.5"/>
<polyline clip-path="url(#clip062)" style="stroke:#333f48; stroke-linecap:round; stroke-linejoin:round; stroke-width:8; stroke-opacity:0.5; fill:none" points="
  1651.84,1265.04 1651.84,1416.95 1700.9,1416.95 1700.9,1265.04 1651.84,1265.04 
  "/>
<path clip-path="url(#clip062)" d="
M1700.9 1324.81 L1700.9 1416.95 L1749.97 1416.95 L1749.97 1324.81 L1700.9 1324.81 L1700.9 1324.81  Z
  " fill="#af0078" fill-rule="evenodd" fill-opacity="0.5"/>
<polyline clip-path="url(#clip062)" style="stroke:#333f48; stroke-linecap:round; stroke-linejoin:round; stroke-width:8; stroke-opacity:0.5; fill:none" points="
  1700.9,1324.81 1700.9,1416.95 1749.97,1416.95 1749.97,1324.81 1700.9,1324.81 
  "/>
<path clip-path="url(#clip062)" d="
M1749.97 1362.17 L1749.97 1416.95 L1799.03 1416.95 L1799.03 1362.17 L1749.97 1362.17 L1749.97 1362.17  Z
  " fill="#af0078" fill-rule="evenodd" fill-opacity="0.5"/>
<polyline clip-path="url(#clip062)" style="stroke:#333f48; stroke-linecap:round; stroke-linejoin:round; stroke-width:8; stroke-opacity:0.5; fill:none" points="
  1749.97,1362.17 1749.97,1416.95 1799.03,1416.95 1799.03,1362.17 1749.97,1362.17 
  "/>
<path clip-path="url(#clip062)" d="
M1799.03 1378.35 L1799.03 1416.95 L1848.1 1416.95 L1848.1 1378.35 L1799.03 1378.35 L1799.03 1378.35  Z
  " fill="#af0078" fill-rule="evenodd" fill-opacity="0.5"/>
<polyline clip-path="url(#clip062)" style="stroke:#333f48; stroke-linecap:round; stroke-linejoin:round; stroke-width:8; stroke-opacity:0.5; fill:none" points="
  1799.03,1378.35 1799.03,1416.95 1848.1,1416.95 1848.1,1378.35 1799.03,1378.35 
  "/>
<path clip-path="url(#clip062)" d="
M1848.1 1404.5 L1848.1 1416.95 L1897.16 1416.95 L1897.16 1404.5 L1848.1 1404.5 L1848.1 1404.5  Z
  " fill="#af0078" fill-rule="evenodd" fill-opacity="0.5"/>
<polyline clip-path="url(#clip062)" style="stroke:#333f48; stroke-linecap:round; stroke-linejoin:round; stroke-width:8; stroke-opacity:0.5; fill:none" points="
  1848.1,1404.5 1848.1,1416.95 1897.16,1416.95 1897.16,1404.5 1848.1,1404.5 
  "/>
<path clip-path="url(#clip062)" d="
M1897.16 1408.24 L1897.16 1416.95 L1946.22 1416.95 L1946.22 1408.24 L1897.16 1408.24 L1897.16 1408.24  Z
  " fill="#af0078" fill-rule="evenodd" fill-opacity="0.5"/>
<polyline clip-path="url(#clip062)" style="stroke:#333f48; stroke-linecap:round; stroke-linejoin:round; stroke-width:8; stroke-opacity:0.5; fill:none" points="
  1897.16,1408.24 1897.16,1416.95 1946.22,1416.95 1946.22,1408.24 1897.16,1408.24 
  "/>
<path clip-path="url(#clip062)" d="
M1946.22 1404.5 L1946.22 1416.95 L1995.29 1416.95 L1995.29 1404.5 L1946.22 1404.5 L1946.22 1404.5  Z
  " fill="#af0078" fill-rule="evenodd" fill-opacity="0.5"/>
<polyline clip-path="url(#clip062)" style="stroke:#333f48; stroke-linecap:round; stroke-linejoin:round; stroke-width:8; stroke-opacity:0.5; fill:none" points="
  1946.22,1404.5 1946.22,1416.95 1995.29,1416.95 1995.29,1404.5 1946.22,1404.5 
  "/>
<path clip-path="url(#clip062)" d="
M1995.29 1413.22 L1995.29 1416.95 L2044.35 1416.95 L2044.35 1413.22 L1995.29 1413.22 L1995.29 1413.22  Z
  " fill="#af0078" fill-rule="evenodd" fill-opacity="0.5"/>
<polyline clip-path="url(#clip062)" style="stroke:#333f48; stroke-linecap:round; stroke-linejoin:round; stroke-width:8; stroke-opacity:0.5; fill:none" points="
  1995.29,1413.22 1995.29,1416.95 2044.35,1416.95 2044.35,1413.22 1995.29,1413.22 
  "/>
<path clip-path="url(#clip062)" d="
M2044.35 1415.71 L2044.35 1416.95 L2093.42 1416.95 L2093.42 1415.71 L2044.35 1415.71 L2044.35 1415.71  Z
  " fill="#af0078" fill-rule="evenodd" fill-opacity="0.5"/>
<polyline clip-path="url(#clip062)" style="stroke:#333f48; stroke-linecap:round; stroke-linejoin:round; stroke-width:8; stroke-opacity:0.5; fill:none" points="
  2044.35,1415.71 2044.35,1416.95 2093.42,1416.95 2093.42,1415.71 2044.35,1415.71 
  "/>
<path clip-path="url(#clip062)" d="
M2093.42 1416.95 L2093.42 1416.95 L2142.48 1416.95 L2142.48 1416.95 L2093.42 1416.95 L2093.42 1416.95  Z
  " fill="#af0078" fill-rule="evenodd" fill-opacity="0.5"/>
<polyline clip-path="url(#clip062)" style="stroke:#333f48; stroke-linecap:round; stroke-linejoin:round; stroke-width:8; stroke-opacity:0.5; fill:none" points="
  2093.42,1416.95 2093.42,1416.95 2142.48,1416.95 2093.42,1416.95 
  "/>
<path clip-path="url(#clip062)" d="
M2142.48 1414.46 L2142.48 1416.95 L2191.55 1416.95 L2191.55 1414.46 L2142.48 1414.46 L2142.48 1414.46  Z
  " fill="#af0078" fill-rule="evenodd" fill-opacity="0.5"/>
<polyline clip-path="url(#clip062)" style="stroke:#333f48; stroke-linecap:round; stroke-linejoin:round; stroke-width:8; stroke-opacity:0.5; fill:none" points="
  2142.48,1414.46 2142.48,1416.95 2191.55,1416.95 2191.55,1414.46 2142.48,1414.46 
  "/>
<circle clip-path="url(#clip062)" style="fill:#af0078; stroke:none; fill-opacity:0" cx="400.701" cy="1414.46" r="2"/>
<circle clip-path="url(#clip062)" style="fill:#af0078; stroke:none; fill-opacity:0" cx="449.766" cy="1415.71" r="2"/>
<circle clip-path="url(#clip062)" style="fill:#af0078; stroke:none; fill-opacity:0" cx="498.83" cy="1405.75" r="2"/>
<circle clip-path="url(#clip062)" style="fill:#af0078; stroke:none; fill-opacity:0" cx="547.894" cy="1409.48" r="2"/>
<circle clip-path="url(#clip062)" style="fill:#af0078; stroke:none; fill-opacity:0" cx="596.958" cy="1402.01" r="2"/>
<circle clip-path="url(#clip062)" style="fill:#af0078; stroke:none; fill-opacity:0" cx="646.022" cy="1389.56" r="2"/>
<circle clip-path="url(#clip062)" style="fill:#af0078; stroke:none; fill-opacity:0" cx="695.087" cy="1359.68" r="2"/>
<circle clip-path="url(#clip062)" style="fill:#af0078; stroke:none; fill-opacity:0" cx="744.151" cy="1307.38" r="2"/>
<circle clip-path="url(#clip062)" style="fill:#af0078; stroke:none; fill-opacity:0" cx="793.215" cy="1253.83" r="2"/>
<circle clip-path="url(#clip062)" style="fill:#af0078; stroke:none; fill-opacity:0" cx="842.279" cy="1166.67" r="2"/>
<circle clip-path="url(#clip062)" style="fill:#af0078; stroke:none; fill-opacity:0" cx="891.344" cy="1095.69" r="2"/>
<circle clip-path="url(#clip062)" style="fill:#af0078; stroke:none; fill-opacity:0" cx="940.408" cy="997.325" r="2"/>
<circle clip-path="url(#clip062)" style="fill:#af0078; stroke:none; fill-opacity:0" cx="989.472" cy="850.392" r="2"/>
<circle clip-path="url(#clip062)" style="fill:#af0078; stroke:none; fill-opacity:0" cx="1038.54" cy="676.065" r="2"/>
<circle clip-path="url(#clip062)" style="fill:#af0078; stroke:none; fill-opacity:0" cx="1087.6" cy="557.772" r="2"/>
<circle clip-path="url(#clip062)" style="fill:#af0078; stroke:none; fill-opacity:0" cx="1136.66" cy="430.763" r="2"/>
<circle clip-path="url(#clip062)" style="fill:#af0078; stroke:none; fill-opacity:0" cx="1185.73" cy="336.128" r="2"/>
<circle clip-path="url(#clip062)" style="fill:#af0078; stroke:none; fill-opacity:0" cx="1234.79" cy="257.681" r="2"/>
<circle clip-path="url(#clip062)" style="fill:#af0078; stroke:none; fill-opacity:0" cx="1283.86" cy="336.128" r="2"/>
<circle clip-path="url(#clip062)" style="fill:#af0078; stroke:none; fill-opacity:0" cx="1332.92" cy="428.272" r="2"/>
<circle clip-path="url(#clip062)" style="fill:#af0078; stroke:none; fill-opacity:0" cx="1381.99" cy="502.984" r="2"/>
<circle clip-path="url(#clip062)" style="fill:#af0078; stroke:none; fill-opacity:0" cx="1431.05" cy="663.614" r="2"/>
<circle clip-path="url(#clip062)" style="fill:#af0078; stroke:none; fill-opacity:0" cx="1480.11" cy="800.584" r="2"/>
<circle clip-path="url(#clip062)" style="fill:#af0078; stroke:none; fill-opacity:0" cx="1529.18" cy="996.079" r="2"/>
<circle clip-path="url(#clip062)" style="fill:#af0078; stroke:none; fill-opacity:0" cx="1578.24" cy="1120.6" r="2"/>
<circle clip-path="url(#clip062)" style="fill:#af0078; stroke:none; fill-opacity:0" cx="1627.31" cy="1192.82" r="2"/>
<circle clip-path="url(#clip062)" style="fill:#af0078; stroke:none; fill-opacity:0" cx="1676.37" cy="1265.04" r="2"/>
<circle clip-path="url(#clip062)" style="fill:#af0078; stroke:none; fill-opacity:0" cx="1725.44" cy="1324.81" r="2"/>
<circle clip-path="url(#clip062)" style="fill:#af0078; stroke:none; fill-opacity:0" cx="1774.5" cy="1362.17" r="2"/>
<circle clip-path="url(#clip062)" style="fill:#af0078; stroke:none; fill-opacity:0" cx="1823.56" cy="1378.35" r="2"/>
<circle clip-path="url(#clip062)" style="fill:#af0078; stroke:none; fill-opacity:0" cx="1872.63" cy="1404.5" r="2"/>
<circle clip-path="url(#clip062)" style="fill:#af0078; stroke:none; fill-opacity:0" cx="1921.69" cy="1408.24" r="2"/>
<circle clip-path="url(#clip062)" style="fill:#af0078; stroke:none; fill-opacity:0" cx="1970.76" cy="1404.5" r="2"/>
<circle clip-path="url(#clip062)" style="fill:#af0078; stroke:none; fill-opacity:0" cx="2019.82" cy="1413.22" r="2"/>
<circle clip-path="url(#clip062)" style="fill:#af0078; stroke:none; fill-opacity:0" cx="2068.89" cy="1415.71" r="2"/>
<circle clip-path="url(#clip062)" style="fill:#af0078; stroke:none; fill-opacity:0" cx="2117.95" cy="1416.95" r="2"/>
<circle clip-path="url(#clip062)" style="fill:#af0078; stroke:none; fill-opacity:0" cx="2167.01" cy="1414.46" r="2"/>
<polyline clip-path="url(#clip062)" style="stroke:#00578a; stroke-linecap:round; stroke-linejoin:round; stroke-width:8; stroke-opacity:1; fill:none" points="
  1312.3,2799.12 1312.3,-1328.69 
  "/>
<polyline clip-path="url(#clip062)" style="stroke:#af0078; stroke-linecap:round; stroke-linejoin:round; stroke-width:8; stroke-opacity:1; fill:none" points="
  1234.91,2799.12 1234.91,-1328.69 
  "/>
<path clip-path="url(#clip060)" d="
M1749.41 248.629 L2283.08 248.629 L2283.08 93.1086 L1749.41 93.1086  Z
  " fill="#000000" fill-rule="evenodd" fill-opacity="0"/>
<polyline clip-path="url(#clip060)" style="stroke:#000000; stroke-linecap:round; stroke-linejoin:round; stroke-width:4; stroke-opacity:0; fill:none" points="
  1749.41,248.629 2283.08,248.629 2283.08,93.1086 1749.41,93.1086 1749.41,248.629 
  "/>
<path clip-path="url(#clip060)" d="
M1772.64 165.685 L1911.98 165.685 L1911.98 124.213 L1772.64 124.213 L1772.64 165.685  Z
  " fill="#00578a" fill-rule="evenodd" fill-opacity="0.5"/>
<polyline clip-path="url(#clip060)" style="stroke:#333f48; stroke-linecap:round; stroke-linejoin:round; stroke-width:8; stroke-opacity:1; fill:none" points="
  1772.64,165.685 1911.98,165.685 1911.98,124.213 1772.64,124.213 1772.64,165.685 
  "/>
<path clip-path="url(#clip060)" d="M1935.21 127.669 L1939.91 127.669 L1939.91 148.664 Q1939.91 154.219 1941.92 156.673 Q1943.93 159.104 1948.45 159.104 Q1952.94 159.104 1954.95 156.673 Q1956.97 154.219 1956.97 148.664 L1956.97 127.669 L1961.67 127.669 L1961.67 149.243 Q1961.67 156.002 1958.31 159.451 Q1954.98 162.9 1948.45 162.9 Q1941.9 162.9 1938.54 159.451 Q1935.21 156.002 1935.21 149.243 L1935.21 127.669 Z" fill="#333f48" fill-rule="evenodd" fill-opacity="1" /><path clip-path="url(#clip060)" d="M1974.37 158.34 L1974.37 172.09 L1970.09 172.09 L1970.09 136.303 L1974.37 136.303 L1974.37 140.238 Q1975.72 137.923 1977.75 136.812 Q1979.81 135.678 1982.66 135.678 Q1987.38 135.678 1990.32 139.428 Q1993.29 143.178 1993.29 149.289 Q1993.29 155.4 1990.32 159.15 Q1987.38 162.9 1982.66 162.9 Q1979.81 162.9 1977.75 161.789 Q1975.72 160.655 1974.37 158.34 M1988.86 149.289 Q1988.86 144.59 1986.92 141.928 Q1985 139.243 1981.62 139.243 Q1978.24 139.243 1976.29 141.928 Q1974.37 144.59 1974.37 149.289 Q1974.37 153.988 1976.29 156.673 Q1978.24 159.335 1981.62 159.335 Q1985 159.335 1986.92 156.673 Q1988.86 153.988 1988.86 149.289 Z" fill="#333f48" fill-rule="evenodd" fill-opacity="1" /><path clip-path="url(#clip060)" d="M2017.41 140.238 L2017.41 126.21 L2021.66 126.21 L2021.66 162.229 L2017.41 162.229 L2017.41 158.34 Q2016.06 160.655 2014 161.789 Q2011.97 162.9 2009.1 162.9 Q2004.4 162.9 2001.43 159.15 Q1998.49 155.4 1998.49 149.289 Q1998.49 143.178 2001.43 139.428 Q2004.4 135.678 2009.1 135.678 Q2011.97 135.678 2014 136.812 Q2016.06 137.923 2017.41 140.238 M2002.89 149.289 Q2002.89 153.988 2004.81 156.673 Q2006.76 159.335 2010.14 159.335 Q2013.52 159.335 2015.46 156.673 Q2017.41 153.988 2017.41 149.289 Q2017.41 144.59 2015.46 141.928 Q2013.52 139.243 2010.14 139.243 Q2006.76 139.243 2004.81 141.928 Q2002.89 144.59 2002.89 149.289 Z" fill="#333f48" fill-rule="evenodd" fill-opacity="1" /><path clip-path="url(#clip060)" d="M2042.22 149.196 Q2037.06 149.196 2035.07 150.377 Q2033.08 151.557 2033.08 154.405 Q2033.08 156.673 2034.56 158.016 Q2036.06 159.335 2038.63 159.335 Q2042.17 159.335 2044.3 156.835 Q2046.46 154.312 2046.46 150.145 L2046.46 149.196 L2042.22 149.196 M2050.72 147.437 L2050.72 162.229 L2046.46 162.229 L2046.46 158.293 Q2045 160.655 2042.82 161.789 Q2040.65 162.9 2037.5 162.9 Q2033.52 162.9 2031.16 160.678 Q2028.82 158.432 2028.82 154.682 Q2028.82 150.307 2031.73 148.085 Q2034.67 145.863 2040.48 145.863 L2046.46 145.863 L2046.46 145.446 Q2046.46 142.507 2044.51 140.909 Q2042.59 139.289 2039.1 139.289 Q2036.87 139.289 2034.77 139.821 Q2032.66 140.354 2030.72 141.419 L2030.72 137.483 Q2033.05 136.581 2035.25 136.141 Q2037.45 135.678 2039.54 135.678 Q2045.16 135.678 2047.94 138.594 Q2050.72 141.511 2050.72 147.437 Z" fill="#333f48" fill-rule="evenodd" fill-opacity="1" /><path clip-path="url(#clip060)" d="M2063.7 128.942 L2063.7 136.303 L2072.47 136.303 L2072.47 139.613 L2063.7 139.613 L2063.7 153.687 Q2063.7 156.858 2064.56 157.761 Q2065.44 158.664 2068.1 158.664 L2072.47 158.664 L2072.47 162.229 L2068.1 162.229 Q2063.17 162.229 2061.29 160.4 Q2059.42 158.548 2059.42 153.687 L2059.42 139.613 L2056.29 139.613 L2056.29 136.303 L2059.42 136.303 L2059.42 128.942 L2063.7 128.942 Z" fill="#333f48" fill-rule="evenodd" fill-opacity="1" /><path clip-path="url(#clip060)" d="M2100.25 148.201 L2100.25 150.284 L2080.67 150.284 Q2080.95 154.682 2083.31 156.997 Q2085.69 159.289 2089.93 159.289 Q2092.38 159.289 2094.67 158.687 Q2096.99 158.085 2099.26 156.881 L2099.26 160.909 Q2096.97 161.881 2094.56 162.391 Q2092.15 162.9 2089.67 162.9 Q2083.47 162.9 2079.84 159.289 Q2076.22 155.678 2076.22 149.52 Q2076.22 143.155 2079.65 139.428 Q2083.1 135.678 2088.93 135.678 Q2094.16 135.678 2097.2 139.057 Q2100.25 142.414 2100.25 148.201 M2095.99 146.951 Q2095.95 143.456 2094.03 141.372 Q2092.13 139.289 2088.98 139.289 Q2085.41 139.289 2083.26 141.303 Q2081.13 143.317 2080.81 146.974 L2095.99 146.951 Z" fill="#333f48" fill-rule="evenodd" fill-opacity="1" /><path clip-path="url(#clip060)" d="M2122.5 127.669 L2127.17 127.669 L2127.17 158.293 L2144 158.293 L2144 162.229 L2122.5 162.229 L2122.5 127.669 Z" fill="#333f48" fill-rule="evenodd" fill-opacity="1" /><path clip-path="url(#clip060)" d="M2157.94 139.289 Q2154.51 139.289 2152.52 141.974 Q2150.53 144.636 2150.53 149.289 Q2150.53 153.942 2152.5 156.627 Q2154.49 159.289 2157.94 159.289 Q2161.34 159.289 2163.33 156.604 Q2165.32 153.918 2165.32 149.289 Q2165.32 144.682 2163.33 141.997 Q2161.34 139.289 2157.94 139.289 M2157.94 135.678 Q2163.49 135.678 2166.66 139.289 Q2169.84 142.9 2169.84 149.289 Q2169.84 155.655 2166.66 159.289 Q2163.49 162.9 2157.94 162.9 Q2152.36 162.9 2149.19 159.289 Q2146.04 155.655 2146.04 149.289 Q2146.04 142.9 2149.19 139.289 Q2152.36 135.678 2157.94 135.678 Z" fill="#333f48" fill-rule="evenodd" fill-opacity="1" /><path clip-path="url(#clip060)" d="M2174.42 136.303 L2178.68 136.303 L2184 156.534 L2189.3 136.303 L2194.33 136.303 L2199.65 156.534 L2204.95 136.303 L2209.21 136.303 L2202.43 162.229 L2197.4 162.229 L2191.83 140.979 L2186.22 162.229 L2181.2 162.229 L2174.42 136.303 Z" fill="#333f48" fill-rule="evenodd" fill-opacity="1" /><path clip-path="url(#clip060)" d="M2237.84 148.201 L2237.84 150.284 L2218.26 150.284 Q2218.54 154.682 2220.9 156.997 Q2223.28 159.289 2227.52 159.289 Q2229.97 159.289 2232.27 158.687 Q2234.58 158.085 2236.85 156.881 L2236.85 160.909 Q2234.56 161.881 2232.15 162.391 Q2229.74 162.9 2227.27 162.9 Q2221.06 162.9 2217.43 159.289 Q2213.82 155.678 2213.82 149.52 Q2213.82 143.155 2217.24 139.428 Q2220.69 135.678 2226.52 135.678 Q2231.76 135.678 2234.79 139.057 Q2237.84 142.414 2237.84 148.201 M2233.58 146.951 Q2233.54 143.456 2231.62 141.372 Q2229.72 139.289 2226.57 139.289 Q2223.01 139.289 2220.85 141.303 Q2218.72 143.317 2218.4 146.974 L2233.58 146.951 Z" fill="#333f48" fill-rule="evenodd" fill-opacity="1" /><path clip-path="url(#clip060)" d="M2259.86 140.284 Q2259.14 139.868 2258.28 139.682 Q2257.45 139.474 2256.43 139.474 Q2252.82 139.474 2250.88 141.835 Q2248.96 144.173 2248.96 148.571 L2248.96 162.229 L2244.67 162.229 L2244.67 136.303 L2248.96 136.303 L2248.96 140.331 Q2250.3 137.969 2252.45 136.835 Q2254.6 135.678 2257.68 135.678 Q2258.12 135.678 2258.65 135.747 Q2259.19 135.794 2259.83 135.909 L2259.86 140.284 Z" fill="#333f48" fill-rule="evenodd" fill-opacity="1" /><path clip-path="url(#clip060)" d="
M1772.64 217.525 L1911.98 217.525 L1911.98 176.053 L1772.64 176.053 L1772.64 217.525  Z
  " fill="#af0078" fill-rule="evenodd" fill-opacity="0.5"/>
<polyline clip-path="url(#clip060)" style="stroke:#333f48; stroke-linecap:round; stroke-linejoin:round; stroke-width:8; stroke-opacity:1; fill:none" points="
  1772.64,217.525 1911.98,217.525 1911.98,176.053 1772.64,176.053 1772.64,217.525 
  "/>
<path clip-path="url(#clip060)" d="M1935.21 179.509 L1941.5 179.509 L1956.83 208.421 L1956.83 179.509 L1961.36 179.509 L1961.36 214.069 L1955.07 214.069 L1939.74 185.157 L1939.74 214.069 L1935.21 214.069 L1935.21 179.509 Z" fill="#333f48" fill-rule="evenodd" fill-opacity="1" /><path clip-path="url(#clip060)" d="M1980.53 191.129 Q1977.1 191.129 1975.11 193.814 Q1973.12 196.476 1973.12 201.129 Q1973.12 205.782 1975.09 208.467 Q1977.08 211.129 1980.53 211.129 Q1983.93 211.129 1985.92 208.444 Q1987.91 205.758 1987.91 201.129 Q1987.91 196.522 1985.92 193.837 Q1983.93 191.129 1980.53 191.129 M1980.53 187.518 Q1986.09 187.518 1989.26 191.129 Q1992.43 194.74 1992.43 201.129 Q1992.43 207.495 1989.26 211.129 Q1986.09 214.74 1980.53 214.74 Q1974.95 214.74 1971.78 211.129 Q1968.63 207.495 1968.63 201.129 Q1968.63 194.74 1971.78 191.129 Q1974.95 187.518 1980.53 187.518 Z" fill="#333f48" fill-rule="evenodd" fill-opacity="1" /><path clip-path="url(#clip060)" d="M2040.62 182.171 L2040.62 187.101 Q2038.26 184.902 2035.58 183.814 Q2032.91 182.726 2029.91 182.726 Q2023.98 182.726 2020.83 186.36 Q2017.68 189.972 2017.68 196.823 Q2017.68 203.652 2020.83 207.286 Q2023.98 210.897 2029.91 210.897 Q2032.91 210.897 2035.58 209.809 Q2038.26 208.721 2040.62 206.522 L2040.62 211.407 Q2038.17 213.073 2035.41 213.907 Q2032.68 214.74 2029.63 214.74 Q2021.78 214.74 2017.27 209.948 Q2012.75 205.133 2012.75 196.823 Q2012.75 188.49 2017.27 183.698 Q2021.78 178.884 2029.63 178.884 Q2032.73 178.884 2035.46 179.717 Q2038.22 180.527 2040.62 182.171 Z" fill="#333f48" fill-rule="evenodd" fill-opacity="1" /><path clip-path="url(#clip060)" d="M2057.71 191.129 Q2054.28 191.129 2052.29 193.814 Q2050.3 196.476 2050.3 201.129 Q2050.3 205.782 2052.27 208.467 Q2054.26 211.129 2057.71 211.129 Q2061.11 211.129 2063.1 208.444 Q2065.09 205.758 2065.09 201.129 Q2065.09 196.522 2063.1 193.837 Q2061.11 191.129 2057.71 191.129 M2057.71 187.518 Q2063.26 187.518 2066.43 191.129 Q2069.6 194.74 2069.6 201.129 Q2069.6 207.495 2066.43 211.129 Q2063.26 214.74 2057.71 214.74 Q2052.13 214.74 2048.96 211.129 Q2045.81 207.495 2045.81 201.129 Q2045.81 194.74 2048.96 191.129 Q2052.13 187.518 2057.71 187.518 Z" fill="#333f48" fill-rule="evenodd" fill-opacity="1" /><path clip-path="url(#clip060)" d="M2091.69 192.124 Q2090.97 191.708 2090.11 191.522 Q2089.28 191.314 2088.26 191.314 Q2084.65 191.314 2082.71 193.675 Q2080.78 196.013 2080.78 200.411 L2080.78 214.069 L2076.5 214.069 L2076.5 188.143 L2080.78 188.143 L2080.78 192.171 Q2082.13 189.809 2084.28 188.675 Q2086.43 187.518 2089.51 187.518 Q2089.95 187.518 2090.48 187.587 Q2091.02 187.634 2091.66 187.749 L2091.69 192.124 Z" fill="#333f48" fill-rule="evenodd" fill-opacity="1" /><path clip-path="url(#clip060)" d="M2110.34 192.124 Q2109.63 191.708 2108.77 191.522 Q2107.94 191.314 2106.92 191.314 Q2103.31 191.314 2101.36 193.675 Q2099.44 196.013 2099.44 200.411 L2099.44 214.069 L2095.16 214.069 L2095.16 188.143 L2099.44 188.143 L2099.44 192.171 Q2100.78 189.809 2102.94 188.675 Q2105.09 187.518 2108.17 187.518 Q2108.61 187.518 2109.14 187.587 Q2109.67 187.634 2110.32 187.749 L2110.34 192.124 Z" fill="#333f48" fill-rule="evenodd" fill-opacity="1" /><path clip-path="url(#clip060)" d="M2135.95 200.041 L2135.95 202.124 L2116.36 202.124 Q2116.64 206.522 2119 208.837 Q2121.39 211.129 2125.62 211.129 Q2128.08 211.129 2130.37 210.527 Q2132.68 209.925 2134.95 208.721 L2134.95 212.749 Q2132.66 213.721 2130.25 214.231 Q2127.84 214.74 2125.37 214.74 Q2119.16 214.74 2115.53 211.129 Q2111.92 207.518 2111.92 201.36 Q2111.92 194.995 2115.34 191.268 Q2118.79 187.518 2124.63 187.518 Q2129.86 187.518 2132.89 190.897 Q2135.95 194.254 2135.95 200.041 M2131.69 198.791 Q2131.64 195.296 2129.72 193.212 Q2127.82 191.129 2124.67 191.129 Q2121.11 191.129 2118.96 193.143 Q2116.83 195.157 2116.5 198.814 L2131.69 198.791 Z" fill="#333f48" fill-rule="evenodd" fill-opacity="1" /><path clip-path="url(#clip060)" d="M2161.59 189.138 L2161.59 193.12 Q2159.79 192.124 2157.96 191.638 Q2156.15 191.129 2154.3 191.129 Q2150.16 191.129 2147.87 193.768 Q2145.58 196.384 2145.58 201.129 Q2145.58 205.874 2147.87 208.513 Q2150.16 211.129 2154.3 211.129 Q2156.15 211.129 2157.96 210.643 Q2159.79 210.133 2161.59 209.138 L2161.59 213.073 Q2159.81 213.907 2157.89 214.323 Q2155.99 214.74 2153.84 214.74 Q2147.98 214.74 2144.53 211.059 Q2141.09 207.379 2141.09 201.129 Q2141.09 194.786 2144.56 191.152 Q2148.05 187.518 2154.12 187.518 Q2156.09 187.518 2157.96 187.935 Q2159.84 188.328 2161.59 189.138 Z" fill="#333f48" fill-rule="evenodd" fill-opacity="1" /><path clip-path="url(#clip060)" d="M2173.21 180.782 L2173.21 188.143 L2181.99 188.143 L2181.99 191.453 L2173.21 191.453 L2173.21 205.527 Q2173.21 208.698 2174.07 209.601 Q2174.95 210.504 2177.61 210.504 L2181.99 210.504 L2181.99 214.069 L2177.61 214.069 Q2172.68 214.069 2170.81 212.24 Q2168.93 210.388 2168.93 205.527 L2168.93 191.453 L2165.81 191.453 L2165.81 188.143 L2168.93 188.143 L2168.93 180.782 L2173.21 180.782 Z" fill="#333f48" fill-rule="evenodd" fill-opacity="1" /><path clip-path="url(#clip060)" d="M2187.59 188.143 L2191.85 188.143 L2191.85 214.069 L2187.59 214.069 L2187.59 188.143 M2187.59 178.05 L2191.85 178.05 L2191.85 183.444 L2187.59 183.444 L2187.59 178.05 Z" fill="#333f48" fill-rule="evenodd" fill-opacity="1" /><path clip-path="url(#clip060)" d="M2210.81 191.129 Q2207.38 191.129 2205.39 193.814 Q2203.4 196.476 2203.4 201.129 Q2203.4 205.782 2205.37 208.467 Q2207.36 211.129 2210.81 211.129 Q2214.21 211.129 2216.2 208.444 Q2218.19 205.758 2218.19 201.129 Q2218.19 196.522 2216.2 193.837 Q2214.21 191.129 2210.81 191.129 M2210.81 187.518 Q2216.36 187.518 2219.53 191.129 Q2222.71 194.74 2222.71 201.129 Q2222.71 207.495 2219.53 211.129 Q2216.36 214.74 2210.81 214.74 Q2205.23 214.74 2202.06 211.129 Q2198.91 207.495 2198.91 201.129 Q2198.91 194.74 2202.06 191.129 Q2205.23 187.518 2210.81 187.518 Z" fill="#333f48" fill-rule="evenodd" fill-opacity="1" /><path clip-path="url(#clip060)" d="M2251.32 198.421 L2251.32 214.069 L2247.06 214.069 L2247.06 198.559 Q2247.06 194.879 2245.62 193.05 Q2244.19 191.222 2241.32 191.222 Q2237.87 191.222 2235.88 193.421 Q2233.89 195.62 2233.89 199.416 L2233.89 214.069 L2229.6 214.069 L2229.6 188.143 L2233.89 188.143 L2233.89 192.171 Q2235.41 189.833 2237.47 188.675 Q2239.56 187.518 2242.27 187.518 Q2246.73 187.518 2249.02 190.296 Q2251.32 193.05 2251.32 198.421 Z" fill="#333f48" fill-rule="evenodd" fill-opacity="1" /><path clip-path="url(#clip060)" d="M1347.64 141.523 L1379.76 141.523 L1379.76 148.41 L1355.13 148.41 L1355.13 163.236 Q1356.92 162.628 1358.7 162.345 Q1360.48 162.021 1362.26 162.021 Q1372.39 162.021 1378.3 167.57 Q1384.22 173.12 1384.22 182.599 Q1384.22 192.362 1378.14 197.79 Q1372.07 203.178 1361.01 203.178 Q1357.2 203.178 1353.23 202.53 Q1349.3 201.882 1345.09 200.585 L1345.09 192.362 Q1348.73 194.347 1352.62 195.319 Q1356.51 196.291 1360.84 196.291 Q1367.85 196.291 1371.94 192.605 Q1376.04 188.919 1376.04 182.599 Q1376.04 176.28 1371.94 172.594 Q1367.85 168.907 1360.84 168.907 Q1357.56 168.907 1354.28 169.636 Q1351.04 170.366 1347.64 171.905 L1347.64 141.523 Z" fill="#00578a" fill-rule="evenodd" fill-opacity="1" /><path clip-path="url(#clip060)" d="M1400.34 191.714 L1408.89 191.714 L1408.89 202.003 L1400.34 202.003 L1400.34 191.714 Z" fill="#00578a" fill-rule="evenodd" fill-opacity="1" /><path clip-path="url(#clip060)" d="M1444.21 146.911 Q1437.89 146.911 1434.69 153.149 Q1431.53 159.347 1431.53 171.824 Q1431.53 184.26 1434.69 190.499 Q1437.89 196.696 1444.21 196.696 Q1450.57 196.696 1453.73 190.499 Q1456.93 184.26 1456.93 171.824 Q1456.93 159.347 1453.73 153.149 Q1450.57 146.911 1444.21 146.911 M1444.21 140.429 Q1454.38 140.429 1459.73 148.491 Q1465.11 156.512 1465.11 171.824 Q1465.11 187.096 1459.73 195.157 Q1454.38 203.178 1444.21 203.178 Q1434.04 203.178 1428.66 195.157 Q1423.31 187.096 1423.31 171.824 Q1423.31 156.512 1428.66 148.491 Q1434.04 140.429 1444.21 140.429 Z" fill="#00578a" fill-rule="evenodd" fill-opacity="1" /><path clip-path="url(#clip060)" d="M1497 146.911 Q1490.68 146.911 1487.48 153.149 Q1484.32 159.347 1484.32 171.824 Q1484.32 184.26 1487.48 190.499 Q1490.68 196.696 1497 196.696 Q1503.36 196.696 1506.52 190.499 Q1509.72 184.26 1509.72 171.824 Q1509.72 159.347 1506.52 153.149 Q1503.36 146.911 1497 146.911 M1497 140.429 Q1507.16 140.429 1512.51 148.491 Q1517.9 156.512 1517.9 171.824 Q1517.9 187.096 1512.51 195.157 Q1507.16 203.178 1497 203.178 Q1486.83 203.178 1481.44 195.157 Q1476.09 187.096 1476.09 171.824 Q1476.09 156.512 1481.44 148.491 Q1486.83 140.429 1497 140.429 Z" fill="#00578a" fill-rule="evenodd" fill-opacity="1" /><path clip-path="url(#clip060)" d="M1554.76 148.653 L1534.1 180.938 L1554.76 180.938 L1554.76 148.653 M1552.61 141.523 L1562.9 141.523 L1562.9 180.938 L1571.53 180.938 L1571.53 187.744 L1562.9 187.744 L1562.9 202.003 L1554.76 202.003 L1554.76 187.744 L1527.46 187.744 L1527.46 179.845 L1552.61 141.523 Z" fill="#00578a" fill-rule="evenodd" fill-opacity="1" /><path clip-path="url(#clip060)" d="M1002.27 148.653 L981.612 180.938 L1002.27 180.938 L1002.27 148.653 M1000.12 141.523 L1010.41 141.523 L1010.41 180.938 L1019.04 180.938 L1019.04 187.744 L1010.41 187.744 L1010.41 202.003 L1002.27 202.003 L1002.27 187.744 L974.968 187.744 L974.968 179.845 L1000.12 141.523 Z" fill="#af0078" fill-rule="evenodd" fill-opacity="1" /><path clip-path="url(#clip060)" d="M1032.57 191.714 L1041.12 191.714 L1041.12 202.003 L1032.57 202.003 L1032.57 191.714 Z" fill="#af0078" fill-rule="evenodd" fill-opacity="1" /><path clip-path="url(#clip060)" d="M1059.19 200.747 L1059.19 193.294 Q1062.27 194.752 1065.42 195.522 Q1068.58 196.291 1071.62 196.291 Q1079.72 196.291 1083.98 190.863 Q1088.27 185.394 1088.88 174.295 Q1086.53 177.779 1082.92 179.642 Q1079.32 181.506 1074.94 181.506 Q1065.87 181.506 1060.56 176.037 Q1055.3 170.528 1055.3 161.008 Q1055.3 151.691 1060.81 146.06 Q1066.32 140.429 1075.47 140.429 Q1085.96 140.429 1091.47 148.491 Q1097.02 156.512 1097.02 171.824 Q1097.02 186.124 1090.22 194.671 Q1083.45 203.178 1071.99 203.178 Q1068.91 203.178 1065.75 202.57 Q1062.59 201.963 1059.19 200.747 M1075.47 175.105 Q1080.98 175.105 1084.18 171.338 Q1087.42 167.57 1087.42 161.008 Q1087.42 154.486 1084.18 150.719 Q1080.98 146.911 1075.47 146.911 Q1069.96 146.911 1066.72 150.719 Q1063.52 154.486 1063.52 161.008 Q1063.52 167.57 1066.72 171.338 Q1069.96 175.105 1075.47 175.105 Z" fill="#af0078" fill-rule="evenodd" fill-opacity="1" /><path clip-path="url(#clip060)" d="M1118.78 195.117 L1147.33 195.117 L1147.33 202.003 L1108.93 202.003 L1108.93 195.117 Q1113.59 190.296 1121.61 182.194 Q1129.67 174.052 1131.74 171.702 Q1135.67 167.287 1137.21 164.249 Q1138.79 161.17 1138.79 158.213 Q1138.79 153.392 1135.38 150.354 Q1132.02 147.316 1126.59 147.316 Q1122.75 147.316 1118.45 148.653 Q1114.2 149.99 1109.34 152.704 L1109.34 144.44 Q1114.28 142.455 1118.57 141.442 Q1122.87 140.429 1126.43 140.429 Q1135.83 140.429 1141.42 145.128 Q1147.01 149.828 1147.01 157.686 Q1147.01 161.413 1145.59 164.775 Q1144.21 168.097 1140.53 172.634 Q1139.52 173.809 1134.09 179.44 Q1128.66 185.03 1118.78 195.117 Z" fill="#af0078" fill-rule="evenodd" fill-opacity="1" /><path clip-path="url(#clip060)" d="M1164.59 141.523 L1196.71 141.523 L1196.71 148.41 L1172.09 148.41 L1172.09 163.236 Q1173.87 162.628 1175.65 162.345 Q1177.43 162.021 1179.21 162.021 Q1189.34 162.021 1195.26 167.57 Q1201.17 173.12 1201.17 182.599 Q1201.17 192.362 1195.09 197.79 Q1189.02 203.178 1177.96 203.178 Q1174.15 203.178 1170.18 202.53 Q1166.25 201.882 1162.04 200.585 L1162.04 192.362 Q1165.68 194.347 1169.57 195.319 Q1173.46 196.291 1177.8 196.291 Q1184.81 196.291 1188.9 192.605 Q1192.99 188.919 1192.99 182.599 Q1192.99 176.28 1188.9 172.594 Q1184.81 168.907 1177.8 168.907 Q1174.52 168.907 1171.23 169.636 Q1167.99 170.366 1164.59 171.905 L1164.59 141.523 Z" fill="#af0078" fill-rule="evenodd" fill-opacity="1" /></svg>
